<svg version="1.1" xmlns="http://www.w3.org/2000/svg" viewBox="0 0 37 37">
  <rect fill="white" width="100%" height="100%"></rect>
  <path d="M 2 2 h1v1h-1v-1z M 3 2 h1v1h-1v-1z M 4 2 h1v1h-1v-1z M 5 2 h1v1h-1v-1z M 6 2 h1v1h-1v-1z M 7 2 h1v1h-1v-1z M 8 2 h1v1h-1v-1z M 11 2 h1v1h-1v-1z M 12 2 h1v1h-1v-1z M 13 2 h1v1h-1v-1z M 15 2 h1v1h-1v-1z M 16 2 h1v1h-1v-1z M 17 2 h1v1h-1v-1z M 20 2 h1v1h-1v-1z M 22 2 h1v1h-1v-1z M 24 2 h1v1h-1v-1z M 28 2 h1v1h-1v-1z M 29 2 h1v1h-1v-1z M 30 2 h1v1h-1v-1z M 31 2 h1v1h-1v-1z M 32 2 h1v1h-1v-1z M 33 2 h1v1h-1v-1z M 34 2 h1v1h-1v-1z M 2 3 h1v1h-1v-1z M 8 3 h1v1h-1v-1z M 13 3 h1v1h-1v-1z M 14 3 h1v1h-1v-1z M 17 3 h1v1h-1v-1z M 21 3 h1v1h-1v-1z M 25 3 h1v1h-1v-1z M 26 3 h1v1h-1v-1z M 28 3 h1v1h-1v-1z M 34 3 h1v1h-1v-1z M 2 4 h1v1h-1v-1z M 4 4 h1v1h-1v-1z M 5 4 h1v1h-1v-1z M 6 4 h1v1h-1v-1z M 8 4 h1v1h-1v-1z M 11 4 h1v1h-1v-1z M 12 4 h1v1h-1v-1z M 13 4 h1v1h-1v-1z M 16 4 h1v1h-1v-1z M 18 4 h1v1h-1v-1z M 19 4 h1v1h-1v-1z M 21 4 h1v1h-1v-1z M 22 4 h1v1h-1v-1z M 26 4 h1v1h-1v-1z M 28 4 h1v1h-1v-1z M 30 4 h1v1h-1v-1z M 31 4 h1v1h-1v-1z M 32 4 h1v1h-1v-1z M 34 4 h1v1h-1v-1z M 2 5 h1v1h-1v-1z M 4 5 h1v1h-1v-1z M 5 5 h1v1h-1v-1z M 6 5 h1v1h-1v-1z M 8 5 h1v1h-1v-1z M 10 5 h1v1h-1v-1z M 12 5 h1v1h-1v-1z M 13 5 h1v1h-1v-1z M 16 5 h1v1h-1v-1z M 17 5 h1v1h-1v-1z M 19 5 h1v1h-1v-1z M 20 5 h1v1h-1v-1z M 22 5 h1v1h-1v-1z M 23 5 h1v1h-1v-1z M 24 5 h1v1h-1v-1z M 26 5 h1v1h-1v-1z M 28 5 h1v1h-1v-1z M 30 5 h1v1h-1v-1z M 31 5 h1v1h-1v-1z M 32 5 h1v1h-1v-1z M 34 5 h1v1h-1v-1z M 2 6 h1v1h-1v-1z M 4 6 h1v1h-1v-1z M 5 6 h1v1h-1v-1z M 6 6 h1v1h-1v-1z M 8 6 h1v1h-1v-1z M 10 6 h1v1h-1v-1z M 12 6 h1v1h-1v-1z M 14 6 h1v1h-1v-1z M 15 6 h1v1h-1v-1z M 16 6 h1v1h-1v-1z M 17 6 h1v1h-1v-1z M 20 6 h1v1h-1v-1z M 21 6 h1v1h-1v-1z M 22 6 h1v1h-1v-1z M 23 6 h1v1h-1v-1z M 26 6 h1v1h-1v-1z M 28 6 h1v1h-1v-1z M 30 6 h1v1h-1v-1z M 31 6 h1v1h-1v-1z M 32 6 h1v1h-1v-1z M 34 6 h1v1h-1v-1z M 2 7 h1v1h-1v-1z M 8 7 h1v1h-1v-1z M 11 7 h1v1h-1v-1z M 12 7 h1v1h-1v-1z M 15 7 h1v1h-1v-1z M 16 7 h1v1h-1v-1z M 18 7 h1v1h-1v-1z M 21 7 h1v1h-1v-1z M 25 7 h1v1h-1v-1z M 26 7 h1v1h-1v-1z M 28 7 h1v1h-1v-1z M 34 7 h1v1h-1v-1z M 2 8 h1v1h-1v-1z M 3 8 h1v1h-1v-1z M 4 8 h1v1h-1v-1z M 5 8 h1v1h-1v-1z M 6 8 h1v1h-1v-1z M 7 8 h1v1h-1v-1z M 8 8 h1v1h-1v-1z M 10 8 h1v1h-1v-1z M 12 8 h1v1h-1v-1z M 14 8 h1v1h-1v-1z M 16 8 h1v1h-1v-1z M 18 8 h1v1h-1v-1z M 20 8 h1v1h-1v-1z M 22 8 h1v1h-1v-1z M 24 8 h1v1h-1v-1z M 26 8 h1v1h-1v-1z M 28 8 h1v1h-1v-1z M 29 8 h1v1h-1v-1z M 30 8 h1v1h-1v-1z M 31 8 h1v1h-1v-1z M 32 8 h1v1h-1v-1z M 33 8 h1v1h-1v-1z M 34 8 h1v1h-1v-1z M 11 9 h1v1h-1v-1z M 14 9 h1v1h-1v-1z M 15 9 h1v1h-1v-1z M 19 9 h1v1h-1v-1z M 23 9 h1v1h-1v-1z M 24 9 h1v1h-1v-1z M 2 10 h1v1h-1v-1z M 3 10 h1v1h-1v-1z M 7 10 h1v1h-1v-1z M 8 10 h1v1h-1v-1z M 9 10 h1v1h-1v-1z M 11 10 h1v1h-1v-1z M 12 10 h1v1h-1v-1z M 14 10 h1v1h-1v-1z M 16 10 h1v1h-1v-1z M 17 10 h1v1h-1v-1z M 19 10 h1v1h-1v-1z M 25 10 h1v1h-1v-1z M 30 10 h1v1h-1v-1z M 31 10 h1v1h-1v-1z M 6 11 h1v1h-1v-1z M 9 11 h1v1h-1v-1z M 12 11 h1v1h-1v-1z M 16 11 h1v1h-1v-1z M 19 11 h1v1h-1v-1z M 20 11 h1v1h-1v-1z M 22 11 h1v1h-1v-1z M 23 11 h1v1h-1v-1z M 24 11 h1v1h-1v-1z M 25 11 h1v1h-1v-1z M 26 11 h1v1h-1v-1z M 29 11 h1v1h-1v-1z M 33 11 h1v1h-1v-1z M 2 12 h1v1h-1v-1z M 3 12 h1v1h-1v-1z M 4 12 h1v1h-1v-1z M 7 12 h1v1h-1v-1z M 8 12 h1v1h-1v-1z M 11 12 h1v1h-1v-1z M 13 12 h1v1h-1v-1z M 14 12 h1v1h-1v-1z M 20 12 h1v1h-1v-1z M 21 12 h1v1h-1v-1z M 23 12 h1v1h-1v-1z M 25 12 h1v1h-1v-1z M 27 12 h1v1h-1v-1z M 29 12 h1v1h-1v-1z M 31 12 h1v1h-1v-1z M 34 12 h1v1h-1v-1z M 2 13 h1v1h-1v-1z M 3 13 h1v1h-1v-1z M 4 13 h1v1h-1v-1z M 5 13 h1v1h-1v-1z M 6 13 h1v1h-1v-1z M 7 13 h1v1h-1v-1z M 10 13 h1v1h-1v-1z M 12 13 h1v1h-1v-1z M 13 13 h1v1h-1v-1z M 16 13 h1v1h-1v-1z M 17 13 h1v1h-1v-1z M 18 13 h1v1h-1v-1z M 19 13 h1v1h-1v-1z M 23 13 h1v1h-1v-1z M 24 13 h1v1h-1v-1z M 27 13 h1v1h-1v-1z M 28 13 h1v1h-1v-1z M 33 13 h1v1h-1v-1z M 2 14 h1v1h-1v-1z M 6 14 h1v1h-1v-1z M 8 14 h1v1h-1v-1z M 9 14 h1v1h-1v-1z M 11 14 h1v1h-1v-1z M 12 14 h1v1h-1v-1z M 15 14 h1v1h-1v-1z M 16 14 h1v1h-1v-1z M 19 14 h1v1h-1v-1z M 20 14 h1v1h-1v-1z M 25 14 h1v1h-1v-1z M 26 14 h1v1h-1v-1z M 27 14 h1v1h-1v-1z M 29 14 h1v1h-1v-1z M 30 14 h1v1h-1v-1z M 32 14 h1v1h-1v-1z M 33 14 h1v1h-1v-1z M 4 15 h1v1h-1v-1z M 7 15 h1v1h-1v-1z M 10 15 h1v1h-1v-1z M 11 15 h1v1h-1v-1z M 12 15 h1v1h-1v-1z M 14 15 h1v1h-1v-1z M 15 15 h1v1h-1v-1z M 16 15 h1v1h-1v-1z M 21 15 h1v1h-1v-1z M 23 15 h1v1h-1v-1z M 25 15 h1v1h-1v-1z M 27 15 h1v1h-1v-1z M 28 15 h1v1h-1v-1z M 30 15 h1v1h-1v-1z M 32 15 h1v1h-1v-1z M 34 15 h1v1h-1v-1z M 2 16 h1v1h-1v-1z M 3 16 h1v1h-1v-1z M 5 16 h1v1h-1v-1z M 6 16 h1v1h-1v-1z M 7 16 h1v1h-1v-1z M 8 16 h1v1h-1v-1z M 12 16 h1v1h-1v-1z M 15 16 h1v1h-1v-1z M 16 16 h1v1h-1v-1z M 17 16 h1v1h-1v-1z M 18 16 h1v1h-1v-1z M 21 16 h1v1h-1v-1z M 23 16 h1v1h-1v-1z M 25 16 h1v1h-1v-1z M 27 16 h1v1h-1v-1z M 30 16 h1v1h-1v-1z M 31 16 h1v1h-1v-1z M 32 16 h1v1h-1v-1z M 33 16 h1v1h-1v-1z M 34 16 h1v1h-1v-1z M 2 17 h1v1h-1v-1z M 11 17 h1v1h-1v-1z M 12 17 h1v1h-1v-1z M 14 17 h1v1h-1v-1z M 15 17 h1v1h-1v-1z M 16 17 h1v1h-1v-1z M 18 17 h1v1h-1v-1z M 19 17 h1v1h-1v-1z M 23 17 h1v1h-1v-1z M 24 17 h1v1h-1v-1z M 28 17 h1v1h-1v-1z M 29 17 h1v1h-1v-1z M 30 17 h1v1h-1v-1z M 31 17 h1v1h-1v-1z M 33 17 h1v1h-1v-1z M 4 18 h1v1h-1v-1z M 5 18 h1v1h-1v-1z M 6 18 h1v1h-1v-1z M 7 18 h1v1h-1v-1z M 8 18 h1v1h-1v-1z M 10 18 h1v1h-1v-1z M 14 18 h1v1h-1v-1z M 16 18 h1v1h-1v-1z M 17 18 h1v1h-1v-1z M 19 18 h1v1h-1v-1z M 20 18 h1v1h-1v-1z M 23 18 h1v1h-1v-1z M 25 18 h1v1h-1v-1z M 26 18 h1v1h-1v-1z M 28 18 h1v1h-1v-1z M 29 18 h1v1h-1v-1z M 33 18 h1v1h-1v-1z M 34 18 h1v1h-1v-1z M 2 19 h1v1h-1v-1z M 5 19 h1v1h-1v-1z M 10 19 h1v1h-1v-1z M 18 19 h1v1h-1v-1z M 19 19 h1v1h-1v-1z M 21 19 h1v1h-1v-1z M 22 19 h1v1h-1v-1z M 26 19 h1v1h-1v-1z M 28 19 h1v1h-1v-1z M 30 19 h1v1h-1v-1z M 33 19 h1v1h-1v-1z M 34 19 h1v1h-1v-1z M 2 20 h1v1h-1v-1z M 3 20 h1v1h-1v-1z M 8 20 h1v1h-1v-1z M 11 20 h1v1h-1v-1z M 14 20 h1v1h-1v-1z M 15 20 h1v1h-1v-1z M 16 20 h1v1h-1v-1z M 18 20 h1v1h-1v-1z M 26 20 h1v1h-1v-1z M 28 20 h1v1h-1v-1z M 29 20 h1v1h-1v-1z M 30 20 h1v1h-1v-1z M 31 20 h1v1h-1v-1z M 32 20 h1v1h-1v-1z M 33 20 h1v1h-1v-1z M 5 21 h1v1h-1v-1z M 6 21 h1v1h-1v-1z M 10 21 h1v1h-1v-1z M 12 21 h1v1h-1v-1z M 13 21 h1v1h-1v-1z M 16 21 h1v1h-1v-1z M 17 21 h1v1h-1v-1z M 18 21 h1v1h-1v-1z M 19 21 h1v1h-1v-1z M 22 21 h1v1h-1v-1z M 23 21 h1v1h-1v-1z M 24 21 h1v1h-1v-1z M 26 21 h1v1h-1v-1z M 27 21 h1v1h-1v-1z M 28 21 h1v1h-1v-1z M 30 21 h1v1h-1v-1z M 33 21 h1v1h-1v-1z M 34 21 h1v1h-1v-1z M 2 22 h1v1h-1v-1z M 4 22 h1v1h-1v-1z M 5 22 h1v1h-1v-1z M 7 22 h1v1h-1v-1z M 8 22 h1v1h-1v-1z M 9 22 h1v1h-1v-1z M 10 22 h1v1h-1v-1z M 12 22 h1v1h-1v-1z M 13 22 h1v1h-1v-1z M 19 22 h1v1h-1v-1z M 21 22 h1v1h-1v-1z M 22 22 h1v1h-1v-1z M 25 22 h1v1h-1v-1z M 27 22 h1v1h-1v-1z M 28 22 h1v1h-1v-1z M 29 22 h1v1h-1v-1z M 30 22 h1v1h-1v-1z M 32 22 h1v1h-1v-1z M 34 22 h1v1h-1v-1z M 2 23 h1v1h-1v-1z M 7 23 h1v1h-1v-1z M 10 23 h1v1h-1v-1z M 12 23 h1v1h-1v-1z M 14 23 h1v1h-1v-1z M 15 23 h1v1h-1v-1z M 18 23 h1v1h-1v-1z M 20 23 h1v1h-1v-1z M 22 23 h1v1h-1v-1z M 25 23 h1v1h-1v-1z M 26 23 h1v1h-1v-1z M 29 23 h1v1h-1v-1z M 33 23 h1v1h-1v-1z M 2 24 h1v1h-1v-1z M 4 24 h1v1h-1v-1z M 7 24 h1v1h-1v-1z M 8 24 h1v1h-1v-1z M 9 24 h1v1h-1v-1z M 10 24 h1v1h-1v-1z M 11 24 h1v1h-1v-1z M 12 24 h1v1h-1v-1z M 15 24 h1v1h-1v-1z M 16 24 h1v1h-1v-1z M 17 24 h1v1h-1v-1z M 18 24 h1v1h-1v-1z M 19 24 h1v1h-1v-1z M 21 24 h1v1h-1v-1z M 25 24 h1v1h-1v-1z M 26 24 h1v1h-1v-1z M 28 24 h1v1h-1v-1z M 31 24 h1v1h-1v-1z M 32 24 h1v1h-1v-1z M 34 24 h1v1h-1v-1z M 2 25 h1v1h-1v-1z M 5 25 h1v1h-1v-1z M 6 25 h1v1h-1v-1z M 7 25 h1v1h-1v-1z M 9 25 h1v1h-1v-1z M 10 25 h1v1h-1v-1z M 11 25 h1v1h-1v-1z M 14 25 h1v1h-1v-1z M 15 25 h1v1h-1v-1z M 19 25 h1v1h-1v-1z M 23 25 h1v1h-1v-1z M 24 25 h1v1h-1v-1z M 29 25 h1v1h-1v-1z M 33 25 h1v1h-1v-1z M 34 25 h1v1h-1v-1z M 2 26 h1v1h-1v-1z M 3 26 h1v1h-1v-1z M 4 26 h1v1h-1v-1z M 5 26 h1v1h-1v-1z M 7 26 h1v1h-1v-1z M 8 26 h1v1h-1v-1z M 9 26 h1v1h-1v-1z M 10 26 h1v1h-1v-1z M 12 26 h1v1h-1v-1z M 13 26 h1v1h-1v-1z M 14 26 h1v1h-1v-1z M 15 26 h1v1h-1v-1z M 20 26 h1v1h-1v-1z M 25 26 h1v1h-1v-1z M 26 26 h1v1h-1v-1z M 27 26 h1v1h-1v-1z M 28 26 h1v1h-1v-1z M 29 26 h1v1h-1v-1z M 30 26 h1v1h-1v-1z M 10 27 h1v1h-1v-1z M 19 27 h1v1h-1v-1z M 20 27 h1v1h-1v-1z M 21 27 h1v1h-1v-1z M 23 27 h1v1h-1v-1z M 26 27 h1v1h-1v-1z M 30 27 h1v1h-1v-1z M 32 27 h1v1h-1v-1z M 34 27 h1v1h-1v-1z M 2 28 h1v1h-1v-1z M 3 28 h1v1h-1v-1z M 4 28 h1v1h-1v-1z M 5 28 h1v1h-1v-1z M 6 28 h1v1h-1v-1z M 7 28 h1v1h-1v-1z M 8 28 h1v1h-1v-1z M 10 28 h1v1h-1v-1z M 13 28 h1v1h-1v-1z M 14 28 h1v1h-1v-1z M 18 28 h1v1h-1v-1z M 21 28 h1v1h-1v-1z M 23 28 h1v1h-1v-1z M 25 28 h1v1h-1v-1z M 26 28 h1v1h-1v-1z M 28 28 h1v1h-1v-1z M 30 28 h1v1h-1v-1z M 33 28 h1v1h-1v-1z M 34 28 h1v1h-1v-1z M 2 29 h1v1h-1v-1z M 8 29 h1v1h-1v-1z M 10 29 h1v1h-1v-1z M 11 29 h1v1h-1v-1z M 13 29 h1v1h-1v-1z M 17 29 h1v1h-1v-1z M 18 29 h1v1h-1v-1z M 19 29 h1v1h-1v-1z M 22 29 h1v1h-1v-1z M 23 29 h1v1h-1v-1z M 24 29 h1v1h-1v-1z M 25 29 h1v1h-1v-1z M 26 29 h1v1h-1v-1z M 30 29 h1v1h-1v-1z M 31 29 h1v1h-1v-1z M 2 30 h1v1h-1v-1z M 4 30 h1v1h-1v-1z M 5 30 h1v1h-1v-1z M 6 30 h1v1h-1v-1z M 8 30 h1v1h-1v-1z M 12 30 h1v1h-1v-1z M 13 30 h1v1h-1v-1z M 17 30 h1v1h-1v-1z M 20 30 h1v1h-1v-1z M 21 30 h1v1h-1v-1z M 23 30 h1v1h-1v-1z M 25 30 h1v1h-1v-1z M 26 30 h1v1h-1v-1z M 27 30 h1v1h-1v-1z M 28 30 h1v1h-1v-1z M 29 30 h1v1h-1v-1z M 30 30 h1v1h-1v-1z M 33 30 h1v1h-1v-1z M 2 31 h1v1h-1v-1z M 4 31 h1v1h-1v-1z M 5 31 h1v1h-1v-1z M 6 31 h1v1h-1v-1z M 8 31 h1v1h-1v-1z M 12 31 h1v1h-1v-1z M 14 31 h1v1h-1v-1z M 15 31 h1v1h-1v-1z M 16 31 h1v1h-1v-1z M 17 31 h1v1h-1v-1z M 21 31 h1v1h-1v-1z M 22 31 h1v1h-1v-1z M 25 31 h1v1h-1v-1z M 28 31 h1v1h-1v-1z M 31 31 h1v1h-1v-1z M 32 31 h1v1h-1v-1z M 33 31 h1v1h-1v-1z M 34 31 h1v1h-1v-1z M 2 32 h1v1h-1v-1z M 4 32 h1v1h-1v-1z M 5 32 h1v1h-1v-1z M 6 32 h1v1h-1v-1z M 8 32 h1v1h-1v-1z M 11 32 h1v1h-1v-1z M 12 32 h1v1h-1v-1z M 13 32 h1v1h-1v-1z M 18 32 h1v1h-1v-1z M 20 32 h1v1h-1v-1z M 22 32 h1v1h-1v-1z M 23 32 h1v1h-1v-1z M 25 32 h1v1h-1v-1z M 29 32 h1v1h-1v-1z M 32 32 h1v1h-1v-1z M 33 32 h1v1h-1v-1z M 34 32 h1v1h-1v-1z M 2 33 h1v1h-1v-1z M 8 33 h1v1h-1v-1z M 10 33 h1v1h-1v-1z M 11 33 h1v1h-1v-1z M 12 33 h1v1h-1v-1z M 14 33 h1v1h-1v-1z M 15 33 h1v1h-1v-1z M 19 33 h1v1h-1v-1z M 20 33 h1v1h-1v-1z M 21 33 h1v1h-1v-1z M 23 33 h1v1h-1v-1z M 28 33 h1v1h-1v-1z M 2 34 h1v1h-1v-1z M 3 34 h1v1h-1v-1z M 4 34 h1v1h-1v-1z M 5 34 h1v1h-1v-1z M 6 34 h1v1h-1v-1z M 7 34 h1v1h-1v-1z M 8 34 h1v1h-1v-1z M 10 34 h1v1h-1v-1z M 11 34 h1v1h-1v-1z M 14 34 h1v1h-1v-1z M 16 34 h1v1h-1v-1z M 19 34 h1v1h-1v-1z M 21 34 h1v1h-1v-1z M 22 34 h1v1h-1v-1z M 23 34 h1v1h-1v-1z M 28 34 h1v1h-1v-1z M 30 34 h1v1h-1v-1z M 32 34 h1v1h-1v-1z M 33 34 h1v1h-1v-1z"></path>
</svg>
