<svg xmlns="http://www.w3.org/2000/svg" width="1440" height="2560" version="1.0" viewBox="0 0 1080 1920"><defs/><path d="M539.4 200.1c-8.4 1.4-23.4 7.1-32.4 12.4-10.6 6.2-21.6 17-29.8 29.1-11.5 17.2-17.7 31.8-22.3 52.3-2.9 12.8-3.1 14.5-2.5 27.6.5 12.8 2.8 26.1 4.9 28.1.4.4.7 2.2.7 3.9 0 3.5-3.4 7.5-6.6 7.5-1 0-2.6.5-3.4 1-1.3.8-1.3 1.1-.1 1.9 1.7 1.1 6.7-.2 9.1-2.4 1.5-1.4 1.9-1 4.3 5.3 1.5 3.7 2.7 7.2 2.7 7.7s-2.6 3.5-5.7 6.7c-5.4 5.5-5.6 5.8-3.1 5.8 1.8 0 3.9-1.4 6.9-4.5 4.8-5.1 4.7-5.1 10.1 3.1 3.3 5.1 9.6 10.4 16.5 13.8 4.7 2.4 8.6 3.4 19.6 5.1 2.6.4 3.7 1.1 3.7 2.3 0 .9-3 5.1-6.7 9.2-3.8 4.2-8.4 9.5-10.5 11.9-3.1 3.6-4.9 4.6-12.5 7.1-44.8 14.4-90 37.6-103.7 53.2-4.6 5.2-9.3 14-12.6 23.3-2 5.7-6.9 17.1-11 26-6.1 13.1-17.3 41.8-19.1 48.5-1.4 5.5-1.1 10.3 1 14.6 4.3 8.8 4.2 8.9-4.4 13-11.8 5.6-13.3 9.9-8.4 22.7 3.6 9.2 2.7 13.2-5.3 22.8-4.5 5.5-7.7 12.3-7.8 16.5 0 2.4 1.1 4.3 5 8.2 2.8 2.8 5 5.9 4.9 6.9 0 1-2.2 4.7-4.9 8.3-2.7 3.6-8.5 11.9-12.9 18.5-4.5 6.6-8.7 12.9-9.4 13.9-1.2 1.7-1.8 1.8-7.8.7-16.5-2.9-27.7-4.1-43.4-4.6-9.3-.2-23.4-.8-31.2-1.1l-14.2-.7-.7 2.9c-.6 2.4-.2 3.2 3 6 3.7 3.2 3.7 3.3 2.2 6.2-4 7.8-10.6 30.8-12.6 43.7-.6 4.4-1.6 10.5-2.1 13.5-.6 3-1.6 9.1-2.4 13.5-3.3 19.6-2.7 54 1.4 70.3 4.6 18.4 12 32.5 23.6 45 9.4 10.2 43.2 36.4 55.5 43 18.2 9.9 25.3 13.1 39 17.9 31.4 10.9 47.9 11.2 68 1.1 10.9-5.5 16.7-9.6 26-18.2l5.4-5.1.7 3.5c.4 1.9 1.5 8.4 2.4 14.5 3.3 22.7 4.8 31.5 8.1 48.5 1.8 9.6 4 22.7 4.8 29.1.8 6.4 2.5 15.9 3.6 21 1.1 5.2 3.4 15.2 5 22.4 1.6 7.1 3.7 16.6 4.6 21 .9 4.4 2.4 9.6 3.2 11.5.8 1.9 2.3 6.9 3.2 11 3.3 14.4 10 38.6 13 47 1.7 4.7 4.8 15 7 23 2.1 8 4.8 17.1 5.9 20.4 1.2 3.2 2.8 9.7 3.6 14.5.8 4.7 1.9 10.2 2.5 12.1 1.6 5.4 3.9 19.8 4.4 27.3.3 3.7 1 8.3 1.7 10.1.9 2.5.9 10.8.1 35.7-1.4 42.9-1.5 76.3-.2 89.6.6 5.9 1.3 12.8 1.5 15.3 1.2 12.5 7 36.7 17.7 74 7.4 26 8 29.6 5.6 36.7-1.8 5.1-1.9 7.5-1.4 20.8.4 8.2 1.3 17.7 2.1 21 2.1 8.8 1.9 10.6-3 30.1-4.5 18.2-9.1 39-12.6 56.9-3 15.4-2.7 34.5.6 47 1.4 5.3 3.8 12.5 5.4 15.9 3.5 7.7 6.9 9.5 15 7.7 7-1.5 22.5-9.3 27.2-13.8 2.2-2.1 4.5-3.8 5.2-3.8 1.6 0 1 6.1-1.1 10-1 2-1.6 5.9-1.6 12-.1 8.5 0 9 2.4 10.2 2 1 9.2 1.2 33.5.8 52-.8 58.7-1.2 60.8-3.7 4.6-5.4 0-14.4-12.4-24.1l-4.6-3.6-1.7-10.8c-.9-5.9-2.4-14.9-3.2-19.8-.9-5-2.7-16.2-4-25-5.4-35.2-5.4-36.5-.1-50.2 4.3-10.8 9.7-28.3 9.7-31.1 0-2.6-4.1-6-11.8-9.6-4.2-2-6.4-3.7-6.8-5.2-.7-2.8 3.8-21.4 8.7-36.1 18.7-55.6 19.9-59.8 25.4-94.3.8-4.7 2.1-12.2 2.9-16.7.8-4.6 2-14.9 2.6-23 1.3-16.3.7-25-3.6-54.8-1.4-9.4-3.1-21.5-3.9-27-.8-5.5-1.7-19-2.1-30-.7-22.4-.8-22.1 7.1-54.5 4.2-17.4 7-29.1 10-42 .7-3 4-17.2 7.4-31.5 3.5-14.3 8-33.7 10.1-43 2.1-9.4 4.7-19.3 5.8-22.1 1.1-2.7 3-10.6 4.1-17.5 2.4-14.1 5.7-32 7.2-39.4 1.7-8.1 2.9-16.4 3.9-27 .5-5.5 1.9-17.7 3.1-27 3.4-26.6 3-62.3-1.1-91.5-.7-4.7-1.8-9.6-2.5-11-.7-1.4-2.7-8.3-4.4-15.3-3.5-14.2-4.7-17.5-12.8-35.7-5.6-12.7-18.6-32.6-24.6-37.6-4.8-4-5.7-6.9-5.7-18.6 0-12.6 1.5-20.7 3.8-21.4 1-.3 3.2-1.2 5.1-2 4.3-1.9 4.6-1.5 5.9 9.2 1.8 13.5-.5 12.4 26 12.4 12.5 0 25.3-.4 28.4-1 6.7-1 12.8-3.7 12.8-5.5 0-.8 1.9-1.2 5.8-1.2 7-.1 12.4-2.6 17.7-8 4.5-4.7 8.8-13.1 10.5-20.3 1.6-7 2-7.4 9.7-11.3 8.7-4.3 14.3-10.4 14.3-15.4 0-4.5-2.6-10.4-6.6-15.4-3.9-4.8-8.8-15.4-8-17.1.3-.7 1.5-2.7 2.6-4.3 2.5-3.9 7.7-12.9 10.7-18.5 3-5.6 2.6-10.6-1.3-15.8-5.3-6.9-18.2-29.2-21.9-37.7l-3.6-8.5 4.7-6.1c4.4-5.5 4.9-6.6 5.2-12.3.9-14.7-5.3-32.5-22.3-63.3-9.7-17.5-13.9-23.5-21.6-30.9-8.5-8.1-30.2-24.4-32.5-24.4-.4 0-1.6-.7-2.6-1.7-1-.9-4.6-3.1-8-4.8-3.5-1.8-9.2-4.8-12.8-6.6-7.8-4.1-31.8-15.5-34.2-16.2-.9-.3-2.9-2.7-4.4-5.4-2.9-5-9.7-11.7-18.6-18.3-7.9-5.8-7.8-5.7-7.8-11v-4.9l5.5-1.5c3-.9 8.1-2.3 11.3-3.2 8.3-2.3 13.3-5.5 20.1-13.1 9.8-10.8 13-19.3 15.1-39.7.9-8.6.9-13.1.1-17.9-.7-4.1-.8-8.8-.2-13.3.5-4 .5-9.4-.1-12.9-.5-3.3-1.1-9.6-1.4-14-.6-10.3-3.3-19.3-10-33.4-11.3-23.6-21.8-35.2-39.2-43.6-18.3-8.8-38.9-12.2-55.8-9.4zm19.1 7.9c2.1 4 1.9 5-1 5-1.4 0-2.5-.5-2.5-1.2s-1.2-2.5-2.7-4l-2.7-2.8h3.7c3 0 3.9.5 5.2 3zm34.5 7.6c0 1.7-2.2 1.4-2.8-.4-.2-.7.3-1.2 1.2-1.2.9 0 1.6.7 1.6 1.6zm4 1.4c0 1.1-.2 2-.4 2s-.6-.9-.9-2c-.3-1.1-.1-2 .4-2s.9.9.9 2zm-35.3.6c.2.6-.8 1.4-2.2 1.6-1.4.3-2.5.4-2.5.2 0-.1-.3-1-.6-1.9-.6-1.3-.1-1.6 2.1-1.3 1.6.2 3 .8 3.2 1.4zm30.2 3.1c.1.1-.7 2-2 4.2-2.1 3.8-2.4 4-4 2.5-1.7-1.6-1.7-1.8.2-5.6 1.8-3.5 2.2-3.8 3.7-2.7.9.8 1.9 1.4 2.1 1.6zm-23.9 1.8c1.7 2.1 1.3 2.3-4.4 2.6-5.4.4-7.4-1.4-3.4-3 3.5-1.4 6.4-1.3 7.8.4zm3.3 6c.3 1.3-2.9 1.9-5.1 1-1.5-.6-1.5-.8.3-1.5 2.4-1.1 4.5-.8 4.8.5zm19.5 9.7c15.6 14.4 23.4 24.2 30.7 38.7 3.5 7 10.5 28.3 10.5 31.9 0 4.5-3.7 20.3-6.3 27.2-3.8 10.2-10.2 22-14.7 27.4-10.8 12.9-18.3 20.5-28 28.3-8.2 6.5-11.8 8.8-16.8 10.3-8.3 2.6-18.6 2.6-24.4.1-10.3-4.4-36.5-27.4-44.4-39.1l-3.1-4.5.8-12c.9-12.1 4.5-34.2 5.8-34.9.4-.3 3.4.8 6.6 2.4 7.8 3.8 18 5.6 24.3 4.4 3-.6 4.7-1.4 4.7-2.4 0-1.1-1.1-1.4-4.9-1.1l-4.9.3 2-2.6c2.6-3.3 3.7-9 2.3-11.6-1.9-3.6.8-2.3 6.1 3 5.4 5.4 8.1 5.8 5.2.9-2.6-4.4-9.9-9.7-15.7-11.4-2.7-.8-8.2-1.5-12.2-1.5h-7.3l1.6-3.8c.8-2 1.6-3.8 1.7-3.9.2-.2 6.5 1.3 14.1 3.3 14 3.5 16.5 3.7 16.5.9 0-3.6-15.9-9.5-25.6-9.5-1.3 0-2.4-.2-2.4-.6 0-1.7 9.4-13.9 15.4-20 15.2-15.1 34.1-24.2 50.9-24.3 6.7-.1 7 0 11.5 4.1zm35.6 27.5c1.3-.1 2.9 1.3 4.9 4.6 1.7 2.6 2.8 5 2.5 5.2-.3.3-2.6-.7-5.2-2.1-4.1-2.3-6-4.4-10.1-11.3-.5-.8.7-.3 2.6 1.1 1.9 1.5 4.3 2.6 5.3 2.5zm-118.6 33.4c-.6 1.7-.8 4.8-.5 7 .6 4.4 0 4.7-3.3 2.1-2.3-1.8-2.3-1.9-.6-7 1.3-3.8 2.3-5.2 3.6-5.2 1.7 0 1.8.4.8 3.1zm17.9 1.4c.8 2.2-.6 3.3-1.7 1.5-1.3-2-1.2-3 0-3 .6 0 1.3.7 1.7 1.5zm115 10.9c-.9 9-3.9 18-6.1 18.4-1.3.3-1.7 0-1.4-1 .3-.7 1.4-6.1 2.4-11.8.9-5.8 2.2-11.1 2.7-11.7 1.9-2.6 3 0 2.4 6.1zM636 336c0 2.3-2.6 4.4-4.5 3.6-1.9-.7-1.9-2.6.1-5.4 1.3-1.8 1.9-2.1 3-1.1.8.6 1.4 1.9 1.4 2.9zm-97.6 69.2c12.9 5 26.3 4 39.9-3 1.4-.7-.4 15.3-2.9 25.1-2.9 11.5-5.9 19.7-10.4 28.7-3.5 7-10.7 18.1-12.4 19.2-.6.4-2.1-.2-3.3-1.4-1.3-1.2-2.6-1.9-2.9-1.6-.9 1 1.5 4.7 3.8 5.9 2 1.1 2.6.8 5.6-2.7 12.1-13.7 21.6-37.3 24.7-61 1.8-13.1 2.8-16.3 6-18.7l2.5-1.8v9.3c0 12.9.7 21.3 4.1 48.3.4 3.8.8 9.5.9 12.7v5.6l-5.5.4c-3 .1-5.5.1-5.5-.1s1.1-4 2.5-8.5c2.9-9.5 4.7-20.7 3.5-22-.5-.5-1.1.2-1.4 1.5-2.7 14.2-3.9 19.5-5.5 24.1-1.6 4.9-2.1 5.4-5.7 6.2-6.2 1.3-6.6 1.5-5.8 2.7.4.7 2.1.9 4.5.5l3.9-.6-2.4 5.2c-1.3 2.9-3.4 7.5-4.6 10.3-5.9 13.2-18.3 30.5-21.8 30.5-1 0-4.2-3.9-8.4-10.3-8-12.4-9.9-16.2-12.7-25.1-1.9-6.2-2-7.1-.6-7.8 2.1-1.2 1.9-2.8-.4-2.8-2.2 0-1.9 1-6.6-25-2.1-11.8-2.5-16.5-2.1-25.5.2-6.1.5-15.2.5-20.3l.1-9.4 6.6 4.8c3.7 2.6 9 5.6 11.8 6.6zm-24.5 34.3c-.4 15.4-.8 35.2-.9 44 0 12.4-.3 15.6-1.2 14.7-.7-.7-4.2-1.2-8.9-1.2-6.2 0-8.5.5-12.3 2.5-2.6 1.4-4.9 2.5-5.2 2.5-.8 0-.4-16.5.6-22.5.6-3.3 1.5-9.2 2-13 .6-3.9 1.8-9.5 2.6-12.5 3.2-11.1 6.7-21.5 7.8-23.1 1.8-2.7 16-19.8 16.2-19.6.1.1-.2 12.8-.7 28.2zm90.6-14.2c8.7 7.2 11.9 11.4 14.4 18.7 1.3 3.6 3.8 10.3 5.6 15 1.9 4.7 4.6 12.8 6 18 4.4 16 9.6 32.4 10.7 33.7 3.4 4.2-14.6-1.8-38.8-12.9-2-.9-2.2-2-2.8-17.1-.7-16.8-1.3-24.5-4-45.7-2.2-17.1-2.2-17.4.7-15.9 1.2.7 4.9 3.4 8.2 6.2zm-116.1 19.1c-4.8 15.2-8.3 39.3-8.4 57.4 0 7.8 1.2 8.5 8.6 4.9 3-1.5 5.7-2.7 5.9-2.7.3 0 .5 1.3.5 2.9 0 4.1 3.9 23.1 5.4 26.1.6 1.4 2.3 5.9 3.6 10 1.3 4.1 6 14.4 10.3 23 17.6 34.4 20.1 39.8 22.1 48.4l.7 2.9-5.3-.6c-2.9-.4-7.4-1-10-1.3-3.4-.5-4.8-.3-4.8.5 0 2 6.9 4.2 14.6 4.8 7.1.6 7.2.6 7.8 3.6.3 1.7.5 3.1.4 3.2-.2 0-8.1-.1-17.5-.3l-17.3-.4-.1-19.2c-.1-20-.7-25.3-2.7-24.9-.7.2-1.2-.2-1.2-.7 0-.6-7.4-1-20.3-1h-20.3l-1.3-7.8C457 560.8 454 556 448.3 556c-4 0-16.1-6.8-21.3-12-5.4-5.3-8.7-6.8-11.8-5.1-1.8.9-2 .6-2.6-3.9-.9-6.5-4.2-10.6-7.9-9.6-2.2.5-3 1.6-4.4 6.6-1 3.3-2.1 6-2.4 6-1.3 0-10.9-26.6-10.9-30.3 0-2.8-2.2-8.7-4.4-12l-2.5-3.6 2.6-1.6c1.4-1 5.1-4.1 8.3-7 12.5-11.5 46.7-28.5 84.5-42.1 6.6-2.4 12.7-4.3 13.6-4.3 1.5-.1 1.4.7-.7 7.3zm142.4 4.2c27.9 12.2 45.2 21.5 60.9 32.6 8.2 5.8 20.3 16.4 20.3 17.7 0 .4-6.3 5.8-14 12s-14.5 12.2-15.1 13.4c-.6 1.2-2.2 3.3-3.4 4.7-5.4 5.9-9.9 23.3-11.1 43.3-.6 9.6-.4 12.4 1.1 16.8 1 3 1.9 6 2.1 6.6.2.7.8 1.3 1.3 1.3 1.5 0 2.1-3 1-5.2-3.4-6.4-2.9-26.8 1.1-43 3.3-13.2 6.8-19.2 16.1-27.7 10.7-9.8 17.7-15.4 21.5-17.4l3.2-1.6 4.1 5.3c2.3 2.9 4.1 5.6 4.1 6 0 .4.9 1.9 2.1 3.5 1.6 2.2 2.2 5.1 2.9 15.7.5 7.1 1.2 15.1 1.5 17.7.7 5.5 4.2 15.7 5.5 15.7 1.7 0 1.6-2.4-.4-7.9-1.4-4-1.9-8.6-2.1-16.4 0-5.9 0-10.7.1-10.7.2 0 1.8 3.1 9.6 18 2.2 4.1 4.8 10 5.8 13.2 2.4 6.9 5 21.5 5 27.7 0 4.3-.5 5-5.9 10.6-3.2 3.3-11.2 10.7-17.7 16.5-6.5 5.8-14.5 13.1-17.7 16.2l-6 5.8-10.4-.7-10.4-.6-5-5.6c-4.8-5.4-4.9-5.6-4.9-12.2 0-10.1 3.6-20.3 12.1-33.9 11.8-18.9 12.9-21.5 12.9-29.2 0-6.5-.1-6.8-2.4-6.8-1.8 0-4 1.9-8.5 7.2-3.3 4-6.1 7.8-6.1 8.5 0 3 2.1 1.8 6.5-3.7 6.3-7.8 7.1-7.2 4.9 3.7-.2 1.2-2.3 4.4-4.6 7.2-10 11.7-19.8 37.3-19.8 51.4 0 5.7.2 6.2 4 9.7l4.1 3.7-3.2.7c-1.7.3-5.7.6-8.8.6-5.7.1-25.4 3.8-30.3 5.8-2.3 1-2.8 1.8-2.8 4.7 0 2.2-.5 3.5-1.3 3.5-2.6 0-5.7 4-5.7 7.3 0 3.8 1.5 5.7 4.5 5.7 3.5 0 4.7 1.6 5.5 7.6 2.5 18.4 6.3 46.4 7.5 55.9.8 6 2 15.2 2.7 20.4 1 7.3 1 9.5.1 9.8-.7.3-2.9 1.5-4.8 2.9-3.4 2.3-3.8 2.3-6.3.9-4.7-2.6-20.5-8.5-28.1-10.5-4-1.1-11.2-3.7-16-5.9-10.2-4.7-15.1-6.1-20.8-6.1-6.3 0-5.2 1.8 1.5 2.5 6.7.8 14.7 2.9 18.2 5 2.2 1.3 1.1 1.4-11.5.9-13.8-.5-24.5-1.9-24.5-3.2 0-.4.7-3.2 1.5-6.2 3.2-11.4 1.7-22.1-4-29.6-3.8-5-10.5-19-10.5-21.9 0-4 2.7-9.4 7-14.1 4.9-5.4 5.6-7.8 3.7-14.5-.9-3-2.3-7.9-3.1-10.9-.9-3-1.6-6.8-1.6-8.5 0-1.6-.4-4.5-1-6.4l-.9-3.4 9.2.8c5.8.4 10.5 1.4 12.9 2.6 3.4 1.8 3.9 1.8 4.5.4.3-.9.2-2-.3-2.5-2-1.9-12.3-4-19.7-4-7.6 0-7.8-.1-7.5-2.3.2-1.2.9-2.1 1.5-2 6.5 1.3 20.5 4.8 27.2 6.8 5.2 1.6 8.8 2.2 9.4 1.6 1.5-1.5 0-2.8-4-3.5-2.1-.4-7.2-1.7-11.3-3-4.1-1.3-10.1-3-13.3-3.7-3.2-.7-6-1.6-6.3-2.1-1.1-1.7 3.8-9.5 11.1-17.8 15.8-17.8 19.2-22.1 26.1-32.1 3.9-5.7 7.5-11.5 7.9-12.9.4-1.4 3.9-8.8 7.6-16.6 3.8-7.7 6.9-14.4 6.9-14.7 0-.6 6.9-15.9 7.5-16.5.1-.1 3.8 1.3 8.1 3.2 10.5 4.6 20 6.5 22 4.4 1.4-1.4 1.3-2.2-.9-7.4-1.3-3.2-3.7-10-5.2-14.9-1.5-5-3.3-10.8-4-13-.7-2.2-2.2-7.4-3.5-11.5-1.2-4.1-2.7-8.7-3.2-10.2-.5-1.4-1.3-4.1-1.8-6-.4-1.8-1.1-4.1-1.5-5.1-.9-2.2.6-2.2 5.3-.1zm-108.1 21.3c.5 3 .4 3.3-1.1 2.8-1-.4-2.2-.7-2.7-.7-1.1 0-1.2-10.3-.2-15.1.8-3.6.8-3.4 4 13zm72.7 9.2c1.4 13.8.8 18.5-4 33.3-8.2 25.5-11.3 33.2-14.5 36-6.9 6.2-22.2 8.2-35.9 4.6-9.7-2.5-18-6.6-18-8.9 0-3.4-5.2-12.5-9.6-16.8-2.5-2.5-4.3-5-4-5.7.3-.6 2.2-3.3 4.1-6l3.5-4.8v-17.9c0-19.3-.1-19 5.3-17 1.7.7 2.7 2 3.1 4.3 1.3 6.9 7.4 19.7 14.4 30.4l7.2 11.1v7.4c0 8 .9 10.5 3.4 9.6 1.8-.7 2.3-7.2.6-8.2-.5-.3-1-2.1-1-3.9 0-2.4.7-3.8 3-5.4 6.8-5.1 18-23 26-41.9 2.4-5.7 3-6 10.6-6.2l5.1-.1.7 6.1zm-212.8 25.7c5.1 16.9 7.8 24.8 10.6 31.2 3 6.5 3.3 12.2.8 15.3-.5.7-2.2 2.8-3.8 4.7-5.8 7-6.2 9-6.2 35.1 0 13.2-.4 23.9-.8 23.9-1.8 0-14.9-4.8-19.2-7.1-5.5-2.8-14.6-10.7-17.1-14.8-1-1.7-2.6-3.1-3.4-3.1-1.3 0-1.3.6.4 3.8 2.1 4.2 13.4 15.2 15.5 15.2.7 0 2.4.8 3.7 1.9 2.3 1.7 18.6 7.7 20.1 7.3.4-.1 1 2 1.4 4.5.6 3.9.3 5.4-1.5 8.6-1.2 2.1-2.5 5.7-2.9 7.9-.5 3-1.5 4.6-3.3 5.7-3.8 2.3-12.5 9-21.1 16.3-4.2 3.5-10.2 8.2-13.4 10.6-3.3 2.3-8.4 6.5-11.4 9.2-3 2.8-6 5-6.6 5-1.5 0-9.4-9.8-9.4-11.7 0-2.3 4.6-10.7 8.5-15.3 7.2-8.6 7.9-12.7 4.5-24-1.1-3.6-2-7.7-2-9.1 0-3.4 4.5-7.5 10.5-9.5 2.8-.9 5.6-2.1 6.3-2.7 2.1-1.6 1.4-8.8-1.3-13.2-3-4.7-3.1-9.5-.6-15 .9-2.2 2.6-7.1 3.6-10.8 1-3.7 2.2-7 2.7-7.3.4-.3.8-1.2.8-2.1 0-1.5 2.1-6.7 4.6-11.5.8-1.4 1.4-3.3 1.4-4.2 0-.9.4-2.4 1-3.4 2-3.7 12.3-26.1 15.7-34.2 4.9-12 7.5-17 8.4-16.4.5.3 2 4.4 3.5 9.2zm127.2-1.5c1.9.9 2.3 1.7 1.8 3.9-.6 3.2-8.6 14.9-9.6 14.3-.4-.3-1-3-1.3-6.2-.3-3.2-.9-7.5-1.3-9.5-.6-3.5-.5-3.7 2.2-4 3.3-.4 4.9-.1 8.2 1.5zm96.6 2.2c2 .8 3.6 2 3.6 2.6 0 1.5-7.8 19.7-10.9 25.4-1.5 2.7-3.3 6.6-4.1 8.5-2.9 7.7-11.5 23.8-17 31.9-6.5 9.6-19.4 24-20.6 22.9-.4-.4 2-4.8 5.2-9.9 3.2-5 7.8-12.1 10.2-15.7 2.4-3.7 5.2-8.7 6.1-11.2 4-10 9.6-25.3 14.3-39 4.4-12.9 6.6-17 8.9-17 .3 0 2.3.7 4.3 1.5zm-93.5 28.9c1.3 1.7 3.1 4.9 4.1 7.1 1.7 3.6 7.8 26.8 8.5 32 .2 1.1.6 2.8 1 3.7.4 1 .3 1.8-.3 1.8-1.5 0-15.8-29.6-18.7-39-1.5-4.7-3.1-8.9-3.6-9.5-.5-.5-.9-2-.9-3.3 0-2.4 0-2.4 3.8.9 2 1.8 4.8 4.6 6.1 6.3zm-105.5-2.8c.3.9.6 3.7.6 6.3 0 4.1-.4 5-3.1 7-1.7 1.3-3.3 2.1-3.5 1.8-.6-.6 3.9-16.7 4.7-16.7.4 0 1 .7 1.3 1.6zm13.6 12.9c2.1 2.5.1 3.1-2.2.7-1.8-1.8-1.9-2.2-.6-2.2.8 0 2.1.7 2.8 1.5zm-2.7 5c.8 1.9.6 1.9-4.3-.6-2.9-1.5-3.8-2.4-2.9-3 1.6-.9 6.4 1.5 7.2 3.6zm-3.4 2c.7.7 1.1 2.1.7 3-.5 1.5-1 1.4-4-.9-1.9-1.4-3.9-2.6-4.5-2.6-.6 0-1.1-.5-1.1-1.1 0-1.5 7-.2 8.9 1.6zm15.4 1.3c1.8 1.9 1.7 2.3-1.3 10.8-2 5.6-2.7 9.1-2.1 9.7 2 2 3.7-.3 6.4-8.7l2.8-8.6 2.9 1.5c4 2 4.2 2.7 4.9 11.9.5 6.3.9 8.1 2.1 8.1 1.2 0 1.5-1.6 1.5-8.8 0-4.8.3-8.7.8-8.7 3.2 0 6.2 8.5 7.1 20.5.5 6.1-3 19.5-5.1 19.5-.7 0-4.6-.9-8.5-2-4-1.1-8.3-2-9.6-2-3.3 0-17.6-5.2-25.9-9.3-9.2-4.7-18.3-12.4-18.3-15.5 0-3.4 2.8-8.8 6.3-12.4 2.5-2.5 3.6-2.9 6.4-2.5 1.8.3 4.7 1.5 6.3 2.7 2.5 1.8 2.8 2.5 2 4.1-1.2 2.1-.6 3.9 1.3 3.9.7 0 4.3-4 8.1-9 7.3-9.4 7.9-9.6 11.9-5.2zm-20.1 2.3c4.1 3 2.4 4.2-1.9 1.4-2-1.4-4.2-2.5-4.9-2.5-.8 0-1.4-.5-1.4-1.1 0-1.5 4.7-.3 8.2 2.2zm89.5 37.6c1.4 15.1.7 43.3-1.2 51.6-1 3.9-2.2 7.8-2.8 8.5-.5.7-3.3 2.4-6.1 3.8-5.9 3-14.6 11-14.6 13.6 0 2.9 2.3 2.1 4.9-1.8 1.7-2.4 4.9-4.8 10.1-7.4 4.2-2.1 8.1-4.4 8.7-5.2 1.7-2.1 4.1-11.7 4.8-19.3l.7-7.1 10.1.3c5.6.2 13.9.6 18.4.9l8.2.6.6 4.1c.4 2.3 1.4 6.4 2.2 9 .9 2.6 1.3 5.1.9 5.4-.3.3-.2 1.1.4 1.8.5.6 1.4 4.4 2 8.3 1.1 6.6 1 7.6-.8 11-8.1 15.1-8.3 15.7-7.2 20.7 1.3 5.6 2.7 8.5 8.6 17.3 7.9 11.7 9.2 21.9 4.5 32.9l-2.3 5.2-8.2-.5c-17.5-1-35.1-5.3-48.8-11.8-3.8-1.8-6.8-2.9-6.8-2.5 0 1.8 13.4 9.5 21.4 12.3 1.4.5 1.6 1 .9 1.7-2.3 2.3-24.4.6-33.4-2.5-2.8-1-3.9-1.1-3.6-.3 1 3.3 13.6 6.7 24.7 6.7 3.8 0 5.1.3 4.3 1.1-1.3 1.3-16.3 5.4-23.4 6.4-2.9.4-8.3 1.8-11.9 3-3.6 1.3-7.7 2.5-9.1 2.9-3.7.8-15-4.9-23-11.7-5.7-4.8-6.8-6.3-7.8-10.4-.6-2.6-3.2-10-5.7-16.3-2.5-6.3-5.2-13.1-5.9-15-.7-1.9-2.2-5.8-3.4-8.7-1.2-2.8-2.1-6-2.1-7s1.8-6.9 4.1-13.1c2.2-6.2 4.1-12.1 4.2-13.2.1-1.1 1.3-2.4 2.8-3 1.5-.7 3.6-2.1 4.6-3.3 2.1-2.3 5.3-9.7 5.3-12.2 0-1.6 4.1-8.5 5-8.5.3 0 2.1 3 4 6.8 3.5 6.8 16.8 21.2 19.7 21.2 2.6 0 1.2-2.8-3.3-6.6-5.2-4.2-12.4-13.5-16-20.5l-2.3-4.7 9-15.1C454 607.2 460 593 460 586.8V584h38.8l.9 8.7zm252 31.1c3.4 7 7.3 14.5 8.7 16.7 1.4 2.2 3 5 3.5 6.1.5 1.2 2.8 4.6 5.1 7.5 3.7 4.8 4.1 5.9 3.7 9.7-.3 2.8-1.8 6.2-4.3 9.9-2.2 3.1-4.3 6.3-4.9 7.2-.5.9-2 2.9-3.2 4.4-4.4 5.5-2.6 14.5 4.6 24.2 10.2 13.6 9.3 20.3-3.6 27.1l-6.3 3.3v-5.1c0-4.4.2-4.9 1.8-4.3 2.7 1.2 6.5 1.1 6.9-.1.2-.7-2.1-2.6-5.2-4.4-4.7-2.7-5.5-3.6-5.5-6.1 0-3.4.3-3.3 8.4 2.5 4.9 3.5 6.6 3.8 6.6 1.1 0-1.3-13.1-10.5-15-10.5-.4 0-1.4-1.7-2.1-3.7-.6-2.1-3.5-6.1-6.3-9.1-4.5-4.8-4.9-5.5-3.7-7.3.6-1.1 1.5-4.2 1.8-6.7.6-5-.9-8.8-6.3-15.9-2.4-3.1-7.4-6.3-10.1-6.3-.7 0-1.3-.5-1.3-1 0-.6.7-1 1.5-1 1.5 0 3.8-6.6 2.9-8.2-.3-.4-2-1.6-3.7-2.5l-3.2-1.6 6-1.3c8.7-1.7 15.4-5.1 15.5-7.7 0-1.2-3.9-.8-7 .8-1.6.8-5.2 2-8.1 2.6-4.6 1-5.4.9-8-1-1.5-1.2-3.7-2.1-4.8-2.1-5.4 0-3-2.8 18.7-21.8 5.1-4.5 9.6-8.2 10-8.2.4 0 3.5 5.8 6.9 12.8zm-362 25.3c-2.2 1.8-2.2 1.8-4-2.3-1.3-2.8-1.7-5.1-1.2-7.5l.6-3.5 3.4 5.7 3.5 5.7-2.3 1.9zm9.2 3.4c3 1.5 4.1 3.3 4.1 6.9 0 5.2-4.7 6-9.1 1.7-3.3-3.3-3.8-7.5-1.1-9 2.3-1.4 2.8-1.3 6.1.4zm24.1 2.7c-.1 3.5-7.1 7.8-12.5 7.8-2.3 0-2.5-.4-2.5-4v-3.9l6.8-.4c3.7-.2 7-.4 7.5-.5.4-.1.7.4.7 1zm287.6 4c11.7 1.4 12.5 3.3 1.6 3.4-9 0-14.7 2.2-20.5 7.6-3 2.8-3.7 4.3-3.7 7.2 0 4.5 3.6 8.5 7.7 8.8 3 .1 3.8.1 16-.8l8.1-.7.7 4.5c.5 3.1.2 5.6-.9 8.2-1.5 3.7-1.7 3.8-5.8 3.3-2.4-.3-6.5-1-9.3-1.6-2.7-.5-7.8-1-11.2-1-5.2-.1-6.6.3-9.3 2.6-3.9 3.2-5.1 6.2-4.1 9.9.5 2.1.2 3.2-1.7 5.1-2.8 2.8-2.5 5.7 1.3 11.4 3.9 6 9.9 8.2 23.2 8.7l11.3.5v4.9c0 4.7-.2 5-3.5 6.4-2.6 1.1-5.6 1.3-12 .8-10.2-.8-11.5-.1-11.5 6.2 0 4 .3 4.6 3.8 6.7 6.2 3.9 11.9 5.7 17.9 5.7 3.4 0 5.3.4 4.7.9-1.2 1.2-20.7 3.1-31 3.1-9.3 0-8.9.5-10.1-11-.3-3.3-1.2-6.8-2-7.8-1.3-1.5-1.4-1.1-.8 3.3 1.9 16.6 1.9 16.5-.3 16.5-1.6 0-2.2-.8-2.6-3.3-.3-1.7-1.7-12-3.1-22.7-1.5-10.7-2.9-19.7-3.1-19.9-1.6-1.7-1.4 3.6.9 21.7 3.3 24.6 3.2 24.2.8 24.2-1.6 0-2.1-1-2.6-5.8-3.4-30.8-8.1-61.3-9.7-62.7-1.2-1.2-.9 1.9 2.2 23 2.6 17.8 5.8 44.9 5.3 45.4-1.8 2.2-3.4-6.1-8.8-47.9-1.9-15.1-4.6-34.9-5.9-44-1.8-12.1-2.1-16.7-1.3-17.2 2.3-1.4 15.2-4.1 23.1-4.9 9.9-.9 33.5-.3 46.2 1.3zm17.5 10.3c4.6 2.2 10.3 11.2 10.1 15.8-.1 1.8-.9 5-1.8 7.2-1.4 3.4-1.4 4.8-.3 11.7 1 6 1 8.9.1 12.9-.7 2.8-1.2 6.6-1.2 8.4 0 4.8-1.4 8-6 13.4-2.9 3.4-4 5.6-4 8 0 7.9-8.6 15.4-17.6 15.4-6.3 0-15.7-4.6-16.2-7.9-.3-2 .1-2.1 10.6-2 9.6.1 11.2-.1 13.2-1.9 3.3-3 4.2-6.3 3.5-13.1l-.6-6-11.2-.1c-6.2 0-13.1-.6-15.4-1.2-4.5-1.2-10.3-6.9-10.3-10.1 0-3.1 3.7-3.3 15.3-1.1 17.6 3.4 35.1 2.7 35.2-1.4 0-.5-5.9-1-14-1.1-8.8-.1-16.6-.7-21-1.7-3.8-.9-8-1.7-9.2-1.7-1.6 0-2.3-.8-2.8-3.2-.6-2.7-.3-3.6 2.1-5.6 2.6-2.3 3.3-2.4 10.2-1.8 4 .4 8.4 1.1 9.8 1.6 1.4.6 5.5 1.3 9.2 1.6 7.7.7 16.4-1.8 17-4.9.4-1.9-2.2-2.3-6.1-.8l-2.4.9.5-7.8c.4-7.4.3-8-2.1-10.4-3-3-8.2-3.4-17.9-1.4-7.4 1.5-11.2.4-11.6-3.5-.4-3.2 2.6-6.2 9.2-9 5.4-2.3 20.4-1.9 25.7.8zm-325.6 58.9c-1.7 11-4.8 20.7-10.7 33.5C387.2 772 376 791 374.6 791c-.6 0-5.9-2.8-8.4-4.5-.1-.2 3.6-7.2 8.3-15.8 4.7-8.5 9.7-18.8 11.1-22.9 1.5-4 5.7-14.1 9.4-22.3 3.8-8.3 7.2-16.4 7.7-18 1.6-5.8 1.5 10.5-.2 20.9zm13.5-.4c9 24.5 8.4 23.4 16 28.5 3.7 2.5 10.4 6.3 14.8 8.5l7.9 3.9-.4 11.8c-.6 17.8-.9 19.6-4.8 23.9l-3.3 3.9-4.9-4.6c-2.6-2.5-6.8-6.1-9.3-7.9-2.5-1.9-8.4-6.7-13.1-10.7-4.7-4-9-7.3-9.4-7.3-.5 0-2.6-1.2-4.6-2.6l-3.8-2.6 1.9-4.7c4-10.2 6-27.5 6-51.7 0-3.1.2-5.5.4-5.3.3.3 3.2 7.9 6.6 16.9zm-108.6-1.5l-.1 9.6-7.9 15.7c-4.3 8.6-8 15.9-8.1 16-.3.6-7.3-1.9-7.3-2.6 0-.7 6.2-15 12.7-29.2 1.9-4.1 5.1-10.1 7.1-13.2 2-3.2 3.7-5.8 3.7-5.8s0 4.3-.1 9.5zM205 732c0 .5-.6 1-1.4 1-.8 0-1.8-.5-2.1-1-.3-.6.3-1 1.4-1 1.2 0 2.1.4 2.1 1zm46.5 0c12.6.8 37.2 4.4 38.3 5.5.8.8-11 26.5-12.7 27.8-2.9 2.1-6.1 6.9-6.1 9.2 0 1.2-2.6 6.8-5.7 12.6-9.3 16.9-11.1 21.1-11.8 26.5-.7 4.8-.6 5.2 2.5 7.7 4.4 3.7 7.7 4.4 10 2.1 3-3.1 16-26.5 28.2-50.9 6.3-12.7 12.4-24.4 13.5-26.2l1.9-3.2 1.2 3.3c2.1 5.8 8.7 12.2 14.5 14.3 7.1 2.4 20.2 2.4 28.5-.1l6.2-1.9 5.3 2.3c2.8 1.3 5.6 2.7 6.1 3.1 1.2 1.1-9.2 18.8-13.1 22.2-3.9 3.5-5.8 6.7-6.7 11.8-.4 2-2.8 7-5.5 11-8.1 12.3-13.7 29.1-11.4 34.2 1.3 2.7 6.2 4 10 2.6 4.9-1.8 10.1-8.8 17.3-23 4-7.9 10.8-19.6 15-25.9 4.3-6.3 9.3-14.1 11.2-17.2l3.5-5.8 10.1 6.3c24.6 15.1 46.7 36.5 65.3 63.4l5 7.3-4.1 9.7c-8.8 20.7-23.9 47.4-36.3 64.3-9.6 13-15.4 19.8-27.1 31.7l-10 10.2-3.2-4.7c-7.3-10.9-22.3-21.9-54-39.6-15.8-8.9-30.4-15.9-68.3-32.7-39.9-17.8-58.8-25.7-72-29.9l-10.4-3.4.6-15.6c.7-18.6 3.6-40.4 8.4-63.5 4.8-23.2 12.9-43.9 17.6-45 6.8-1.5 20.9-1.7 38.2-.5zM382 746.3c0 2.6-6.2 13.7-7.6 13.7-2.6 0-9.4-3.2-9.4-4.5 0-.6 1.8-2 4.1-3 2.2-1 5.7-3.1 7.7-4.7 4.2-3.1 5.2-3.4 5.2-1.5zm20.5 7.9c-1 5.9-4.4 16.8-5.3 16.8-.4 0-1.3-.4-2-.9-1.1-.7-.9-1.8 1.1-5.7 1.3-2.7 3.2-7 4.2-9.7 1-2.6 2-4.7 2.2-4.7.3 0 .2 1.9-.2 4.2zm154.5-2.1c8.5.5 21.6 1.4 29 1.8 12.5.8 14.7 1.3 29 6 8.5 2.9 15.8 5.8 16.3 6.4 1.3 1.9.1 34.8-1.3 35.7-2.9 1.8-17.1 2.1-88.5 1.7-71.1-.4-76.2-.5-79.7-2.2l-3.8-1.9v-9c0-5 .3-12.2.7-16 .6-6.6.7-6.9 4-8.3 1.9-.7 8.7-2.5 15.1-3.8 6.4-1.3 15.8-3.6 20.7-5.1 5-1.4 9.9-2.9 11-3.2 1.1-.3 2.5-.9 3.1-1.4 2.4-1.8 10.2-2.7 19.4-2.2 5.2.3 16.5.9 25 1.5zm-271.5 18.3c1.9.8 3.5 1.7 3.5 1.9 0 .5-4.1 10-4.5 10.5-.2.2-2.4-.5-4.9-1.7-3.8-1.6-4.6-2.5-4.6-4.6 0-3.4 2.8-7.5 5.1-7.5 1.1 0 3.5.7 5.4 1.4zm428.5 5.5c0 2.8-.4 5.2-.9 5.6-2 1.2-16.3 2.4-35.8 3.1l-20.2.7-.6-3.9c-.3-2.1-.8-4.6-.9-5.5-.3-1.4 2.1-1.7 20.3-2.3 11.3-.4 23.3-1.1 26.6-1.5 11.9-1.6 11.5-1.8 11.5 3.8zM282 787c0 .5-17.7 32.9-18.6 33.8-.7.9-4.5-1.2-5.5-3-2-3.8 2.6-15.1 13.7-33.4l1.3-2.2 4.5 2.2c2.5 1.1 4.5 2.3 4.6 2.6zm85 4.5c2.7 1.3 5.1 2.9 5.5 3.4.8 1.4-6.5 12.1-8.2 12.1-1.7 0-5.2-1.7-7.4-3.7-1.4-1.1-1.5-2.2-.7-5.6.8-3.5 4.1-8.7 5.5-8.7.2 0 2.6 1.1 5.3 2.5zm107.2 15.7c9.5.7 20.7 1.2 24.8 1.1 4.1 0 33.8-.4 66-.7 32.2-.3 60.7-.7 63.5-.9 4.5-.4 5.4-.1 9.2 3.1 2.3 2 5.5 5.4 7.2 7.6 1.6 2.3 4 5.3 5.3 6.9 3.5 4 8.8 13 10.4 17.6.7 2.1 2.3 5.6 3.5 7.7 3.5 6.3 9.5 24.1 12.3 36.9 1.5 6.6 3.1 13.8 3.7 16 2.4 10.3 4.1 23 4.5 34 .2 6.6.6 13.7.9 15.7.3 2 .1 12.3-.5 23-.5 10.6-1 21.5-1.1 24.3 0 2.7-.9 9.5-1.9 15-1 5.5-2.6 17-3.5 25.5-.9 8.5-2.3 17.7-3 20.5-.7 2.7-1.8 8.8-2.5 13.5-.6 4.7-3.5 18.4-6.4 30.5-5.2 21.4-9.5 39.8-11.7 50-.6 2.7-1.7 7.5-2.5 10.5-.7 3-4.7 20.1-8.8 38-11.1 47.6-12.5 53.4-15.7 64.9-5.1 17.8-4.3 38.7 3.4 87.6 3.9 25.5 4.2 28.2 4.1 48 0 19.1-.3 22.7-3.2 39.5-7.4 42.1-9.5 51.6-15.6 70.4-1.3 3.9-2.9 9.3-3.6 12.1-1.8 6.9-4.6 12.3-6.7 12.8-5.7 1.5-16.3.3-33-3.4-7.9-1.8-10.8-2-19.5-1.4-5.7.5-17.5.8-26.3.9-13.1 0-16.6-.3-19.5-1.7l-3.6-1.7-8.6-30.3c-4.8-16.6-9.2-32.9-9.8-36.2-.6-3.3-1.6-7.9-2.1-10.2-3.2-14.7-4.3-67.2-2.5-121.3.6-18.9.5-29.2-.3-36-1.3-11.1-5.6-34.3-7.7-41.5-.7-2.8-2.1-8.2-2.9-12-2.4-10.5-11-41-16.5-58-9.9-30.6-19.9-68.1-25.4-95.5-3.3-16.4-9.2-50.9-10-58.5-.4-3.3-1.3-9.4-2.1-13.5s-1.7-10-2-13c-.4-3-1.5-9.8-2.5-15-.9-5.2-2.3-13.9-3-19.2l-1.3-9.8 6.4-6.8c22.2-23.5 47.1-62.7 58.4-92 1.6-3.9 3.1-7.2 3.4-7.2.3.1 2.2 2.4 4.1 5.3 3.6 5.3 7 7.3 7 4.2 0-2.7-6.9-14.3-12.1-20.3-2.7-3-4.9-6-4.9-6.5s-3.4-4.9-7.5-9.8c-4.1-4.8-7.5-9.2-7.5-9.7s-1-2.2-2.2-3.7c-2.1-2.7-2.1-2.8-.3-6.2 1.1-1.9 2.4-3.2 3.1-2.9.7.3 9.1 1.1 18.6 1.8zM357 808c1.4 1.1 3 2 3.7 2 2.7 0 2.1 2.4-2.9 12.7-5.3 10.7-12.8 20.3-15.9 20.3-3.7-.1-4.3-1.6-3-7.7 2-9.1 12.3-29.4 14.9-29.3.4 0 1.8.9 3.2 2zm122 45c.6 1.1.8 2 .6 2-.3 0-1-.9-1.6-2-.6-1.1-.8-2-.6-2 .3 0 1 .9 1.6 2zm-278.9 11.9c13.9 4.8 24.3 9.2 65.4 27.3 71.7 31.8 111.8 55.2 123.6 72.5 3 4.3 3 4.5 1.3 6.4-3.7 4.1-15.4 12-22.7 15.3-17.3 7.9-37.6 6.4-68.4-5-25.4-9.4-59.1-31.6-82.8-54.5-12.4-12-18.6-21.3-22.9-34.1-4.1-12.1-7.6-31.8-5.7-31.8.5 0 6 1.8 12.2 3.9zm306.8 696.7c.7 3.6 1.4 9.9 1.6 14 .5 8.2 1.8 11.3 6.5 16.1 9.5 9.7 22.7 2.4 31.5-17.3l2.6-5.9-.4 21.7c-.3 17.8-.6 22.1-2 24.1-.8 1.3-5.6 4.5-10.4 7-10.5 5.4-18.4 7.1-27.1 5.7-3.1-.6-5.8-1-5.8-1-.4 0 2.9-10.6 3.6-11.5 2-2.7 2-12.6 0-20.7-2.9-11.8-4-38.8-1.6-38.8.2 0 .9 3 1.5 6.6zm49.4 36.8c.6 1.4 10.3 9.1 23.6 18.6 4.1 2.9 11.2 7 15.8 9.1 4.6 2.1 8.3 4.3 8.3 4.8 0 .6-1 3.4-2.1 6.3-1.6 3.8-2.1 7.1-2 11.6l.2 6.4-2.8-2c-3.5-2.5-24.5-24-30-30.7-7.8-9.5-13.3-18.7-13.3-22.2 0-3.4 1.3-4.5 2.3-1.9zm18.5 4.1c9.9 2 25.5 2.9 32.5 1.7 5.1-.8 5.7-.7 5.3.7-2.7 9.4-5.8 18.9-6.5 19.9-1.3 2.2-17.9-6.4-30.6-15.8-12.5-9.3-12.7-9.5-10-8.6 1.1.3 5.3 1.2 9.3 2.1zm-7.1 25.6c8.7 9.5 23.2 24 28.5 28.6l4.7 4 2.5 16.9c1.4 9.3 2.8 18.5 3.2 20.4l.7 3.4-7.8-6.4c-12.5-10.3-30.7-28.8-36.4-37-8.8-12.6-13.4-21.7-12.6-24.8.4-1.5.9-6.3 1.1-10.7.2-4.4.6-9.3 1-10.8.6-2.8.7-2.8 4.9 3.6 2.4 3.5 7 9.3 10.2 12.8zm-21.3-2.4c-.6 7.4-.9 8-4.8 12.1-8.2 8.6-23.9 17.2-38 20.9-3.6 1-6.8 1.5-7.1 1.2-.3-.4.8-7.1 2.5-15.1 1.6-8 3-14.7 3-15 0-.2 5.3-.4 11.8-.3h11.7l8.5-4.1c4.7-2.3 9.4-4.9 10.5-5.8 1.1-.8 2.1-1.6 2.3-1.6.2 0 0 3.5-.4 7.7zm-2.3 25.9c-1.5 2.8-9.1 10.4-13.8 13.8-6.3 4.5-14.7 8-25.6 10.6-13.1 3.2-12.7 3.4-11-5.3l1.5-7.2 8.9-2.2c4.9-1.2 12.9-4.1 17.7-6.5 8.6-4.3 19.2-11.5 20.9-14 .9-1.5 2.3 9.1 1.4 10.8zm17.7 10.3c5.6 8 18.8 21.3 33.7 34 6.1 5.2 11.3 9.7 11.7 10 .5.5 4.8 23.2 4.8 25.5 0 .2-2.6-.7-5.7-2.1-7.6-3.5-17-3.6-27.1-.5-7.7 2.4-24.7 11.9-31.9 17.9-4.6 3.7-5.1 3.1-2.8-3.2 4-11 6.7-61.4 4.9-91.5l-.6-10.5 4.1 6.9c2.3 3.8 6.3 9.9 8.9 13.5zm-16.5 13.6c.4 17.3-.9 39.4-2.4 40.9-.3.4-3-.4-6-1.8-8.7-3.8-38.8-10.6-47.1-10.6-.7 0-.9-2.5-.4-7.8.8-10.3 2.2-15.2 4.4-15.2.9 0 6.4-1.1 12.2-2.5 14.2-3.5 23.6-8.2 31.8-16 3.7-3.5 6.8-6.2 6.9-6.2 0 .1.3 8.7.6 19.2zm-42.2 33c12.2 2.1 27.6 6.2 34.2 9.2 6.6 3 7.1 4.7 3.3 10.4-3.5 5.1-15.3 14.4-22.2 17.5-4.4 2-7.6 2.7-12.8 2.8l-6.9.1-3.4-8.5c-4.4-11.1-6.3-19-6.3-26.8 0-6.2 0-6.2 2.9-6.2 1.5 0 6.6.7 11.2 1.5zm102.7 26.2c2.9 1.4 7.4 4.3 10 6.4 2.6 2.2 6.5 5.5 8.7 7.3 5.1 4.3 8.3 10.1 6.8 12.4-.8 1.4-3.4 1.8-14.9 2.3-34.3 1.5-60.5 2-67.4 1.2-7.1-.8-7.5-.9-7.8-3.4-.3-2.1.9-3.5 6.5-8.2 3.7-3 11.4-8.2 17-11.6 17.4-10.3 29.1-12.1 41.1-6.4z"/><path d="M595.2 276c-17.3 2.5-26.4 6.3-27 11.3-.4 3.2-.1 3.3 7.4.7 13.8-4.8 27.3-8.3 33.4-8.6 4.5-.2 6.5-.7 6.5-1.6 0-2.4-10.1-3.3-20.3-1.8zM582 292c-3 1.1-7 3.3-9 4.8-4.7 3.8-8.3 9.3-7.1 10.5.7.7 2.6-.8 5.6-4.1 2.6-2.9 5-5.2 5.3-5.2.4 0 .7 2.4.7 5.4 0 3.7.5 6 1.8 7.3 2.6 2.9 2.1 3.5-2.5 3.1-3.3-.2-4.3.1-4.3 1.2 0 1.2 1.8 1.5 9.5 1.5 8.9 0 10-.3 17-3.7 6.9-3.3 15-9.9 15-12 0-.5.9-.6 2-.3 2.5.8 2.7-1 .3-2.4-1.5-.9-1.4-1 1-1.1 4.4 0 3.1-1.7-2.5-3.4-14.8-4.2-24.1-4.7-32.8-1.6zm25.6 3.1c2.4.6 4.4 1.4 4.4 1.8 0 2.2-8.7 11.1-10.8 11.1-.3 0-.2-1.6.1-3.6.4-2.2.1-5-.8-7-1.3-3.2-1.3-3.4.6-3.4 1.1 0 4 .5 6.5 1.1zm-12.6 3.4c0 1.9-2 2.9-3.2 1.7-.8-.8-.7-1.6.2-2.6 1.4-1.7 3-1.2 3 .9zM556.8 347.7c-2.5 2.5-2.9 2.6-5.3 1.3-1.4-.7-2.8-1-3.2-.7-1 1 2.8 4.7 4.8 4.7 2.2 0 7.9-4.7 7.9-6.6 0-2.1-1.2-1.7-4.2 1.3zM567.5 367.6c-9.8 4.8-17.8 7.4-22.6 7.4-2.8 0-3.9.4-3.7 1.2.7 2 6.3 2.1 12.1.3 7.9-2.5 22.7-9.8 22.7-11.3 0-1.7-.6-1.5-8.5 2.4zM527.4 422.5c-1.3 3.3 8.9 36.1 11.1 35.6 1.5-.3 1.1-2.2-3.3-17.6-2.2-7.7-4.3-15.2-4.6-16.8-.7-2.9-2.3-3.6-3.2-1.2zM689.2 509.1c-1.3.5-5.3 3.9-8.8 7.6-6.3 6.5-9.4 11.4-9.4 14.7 0 2.3 2.4.9 3.8-2.2 1.9-4.4 10.9-14 15.8-16.8 2.4-1.4 4.4-3 4.4-3.5 0-1.1-2.8-1.1-5.8.2zM590.2 586.3c-1.2 1.4-1.1 2.9.2 9.5 1.2 5.8 1.6 13.7 1.6 29.5v21.6l8.8 8.8c8.8 8.9 22.7 19.3 25.6 19.3 2.7 0 1.8-2.9-1.4-4.5-1.6-.9-3-2-3-2.5s-3.7-3.7-8.2-7.1c-4.6-3.4-10.4-8.3-13.1-10.8l-4.7-4.5.1-19.1c.1-10.4-.2-23.2-.6-28.3l-.8-9.2 25.9.1c14.3 0 28.2.4 30.9.7l5 .7.8 21.5c.7 22.3 1 24.6 2.7 23.5.6-.4 1-9.7 1-25.1V586h-9.3c-5.2 0-20.8-.3-34.8-.7-22.7-.5-25.5-.4-26.7 1zM393 567.9c0 2.4 4.3 6.1 7.1 6.1 3.7 0 8.1 2.2 10.6 5.3 2.9 3.7 5.6 4.8 10.8 4 3.9-.5 5.1-.2 7.8 1.8 4.1 3.1 22.6 5.7 23.4 3.3.2-.6-1-1.1-2.9-1.1-8.2-.2-16.6-2-19.3-4.1-2.2-1.7-4.1-2.2-8.9-2.2-5.7 0-6.5-.3-9.2-3.1-3.7-3.9-7.5-5.9-11.3-5.9-2.2 0-3.5-.7-4.7-2.5-1.6-2.5-3.4-3.3-3.4-1.6zM426.6 923.9c-5.3 6.6-15 17.1-21.6 23.3-10.7 10.1-13.7 13.8-11.2 13.8 1.6 0 19.2-16.1 25.9-23.8 11.2-12.6 18.8-23.1 17.6-24.3-.7-.7-4.1 2.7-10.7 11zM270.1 788.9c-1.5 2.7-1.4 4.6.4 6.1 2.2 1.8 7-1.7 7-5.1 0-2-.6-2.5-3.2-2.7-2.3-.2-3.4.2-4.2 1.7zm4.9 1.5c0 .2-.7.9-1.5 1.6-1.2 1-1.5 1-1.5-.4 0-.9.7-1.6 1.5-1.6s1.5.2 1.5.4zM262.3 804.5c-3.1 2.2-3.3 8.5-.3 8.5s6.2-3.7 5.8-6.8c-.4-3.2-2.5-3.8-5.5-1.7zm2.4 4c-.4.8-1.1 1.5-1.7 1.5-.7 0-.7-.6 0-2.1 1.3-2.3 2.6-1.9 1.7.6zM574.5 965.5c-4.7 2.2-30.3 8.4-50 12-8.1 1.5-44.9 3.9-51.4 3.3-2.7-.2-3.6.1-3.9 1.4-.3 1.6.6 1.8 9.3 1.8 15.4 0 43.4-2 50-3.6 3.3-.9 11-2.6 17-3.9 6.1-1.4 15.1-3.6 20-5 5-1.4 10.4-2.9 12-3.3 3.1-.8 4.1-3.5 1.5-3.9-.8-.2-2.8.4-4.5 1.2zM585 991.7c-10.8 14.7-33.9 38.5-46.7 48.2-7.2 5.4-9.8 8.1-7.7 8.1 2.3 0 15-9.6 23.9-18.1 19.9-19 25.8-25.2 30.5-32.2 2.9-4.2 7-9.7 9.2-12.2 3.7-4.2 4.2-6.5 1.4-6.5-.7 0-5.5 5.7-10.6 12.7zM558.5 1005.1c-1.6.6-6.6 2.8-11 4.9-7.5 3.7-26.3 9.3-40 12-3.3.7-6.4 1.5-6.9 1.8-1.4.8 3.3 2.3 5.7 1.7 21.6-4.7 29.1-7 46-13.6 7.8-3.2 12.7-5.6 12.7-6.5 0-1.6-2.2-1.7-6.5-.3zM592.5 1081.6c-13.8 9.4-21.4 13.3-34.6 17.9-28.1 9.8-56.2 13.3-80.4 10-19.1-2.6-26.9-3.4-27.4-2.9-1.3 1.2 2.6 2.9 8.2 3.5 3.4.4 10.9 1.4 16.7 2.3 19.1 2.8 51.8 1.5 59.1-2.5 1-.5 4.5-1.4 7.6-2 6.3-1.1 26.4-8 32.8-11.2 2.2-1.1 5.5-3.1 7.3-4.5 4.9-3.8 4.9-1.9 0 2-13.9 11.2-33.5 21.9-59.5 32.4-7 2.8-9.8 5.6-5 4.9 2.6-.3 18.5-7.1 33.9-14.4 16.4-7.7 43.8-27.3 43.8-31.3 0-.7 2.5-3.1 5.5-5.3 5.2-3.8 7.1-6.6 4.3-6.4-.7 0-6.2 3.4-12.3 7.5zM574.9 1115.1c-10.7 8.6-19.5 14.5-28.2 18.8-9.4 4.6-29.7 10.7-40.7 12.2-8.3 1.2-9.3 1.6-8.4 3.1 1.9 3.1 37.6-5.7 51.2-12.6 8.7-4.4 28.9-18 31.7-21.4 4.8-5.8 1.6-5.8-5.6-.1zM558.5 1135c-1.6 1.2-5.9 3.6-9.5 5.6-7.5 3.9-16.9 11.7-15.4 12.7.6.3 2.6-.4 4.5-1.7 1.9-1.3 7.5-4.8 12.4-7.9 12.3-7.7 13.6-8.7 13-9.8-.9-1.3-1.6-1.1-5 1.1zM585.5 1393.7c-1.4 2.1-5.9 8.9-10 15.1-14.3 21.9-21.6 29.1-41 40.7-8.9 5.4-12.2 7.1-19 10-2 .8-3.8 2.2-4.2 3-1.2 3.2-.1 2.9 11.9-3.1 2.1-1.1 9-5.1 15.5-8.9 15.6-9.4 25.9-19.6 37.4-37 12-18.2 13.9-21.3 13.9-22.5 0-2.1-2.1-.9-4.5 2.7zM582.6 1448.9c-.9 1-3.4 2.6-5.6 3.6-2.2 1-4 2.1-4 2.5 0 .4-2.8 1.5-6.2 2.4-3.5 1-7.6 2.3-9.3 3.1-4.2 1.7-20.4 5.5-24 5.5-1.6.1-4.1.7-5.5 1.5-1.4.8-4.9 1.4-7.8 1.5-3.8 0-5.2.4-5 1.2.6 1.8 10.2 2.2 13 .6 1.3-.6 4.8-1.5 7.8-1.9 8.6-1.2 18.9-3.6 22.4-5.2 1.7-.8 5.8-2.3 9.1-3.2 3.3-1 7.4-2.8 9.1-4.1 1.7-1.3 3.5-2.4 4.1-2.4 1 0 6.3-5.2 6.3-6.3 0-1.4-2.7-.7-4.4 1.2zM351 813c-2.5 2.5-2.6 5.6-.2 6.8 3.5 1.8 7.2-1.2 7.2-6 0-2.3-.4-2.8-2.5-2.8-1.4 0-3.4.9-4.5 2zm3.7 3.5c-.4.8-1.1 1.5-1.7 1.5-1.4 0-1.3-2.7.3-3.3 1.6-.6 2.1-.1 1.4 1.8zM343.1 830.6c-2.6 3.3-2.7 6-.3 7.3 4.2 2.3 8.5-5.2 5-8.7-1.7-1.7-2.4-1.5-4.7 1.4zm3.9 1.8c0 .7-.7 1.9-1.5 2.6-1.6 1.3-2 .3-.9-2.4.8-2 2.4-2.1 2.4-.2zM640.5 770c-.3.5-.2 1 .4 1 .5 0 1.3-.5 1.6-1 .3-.6.2-1-.4-1-.5 0-1.3.4-1.6 1z"/></svg>