<svg xmlns="http://www.w3.org/2000/svg" xml:space="preserve" viewBox="0 0 1080 1920"><rect width="100%" height="100%" fill="#FFFFFF"></rect><path fill="#0D0B0A" d="M196.758 733.368c.43-7.116.855-6.862 9.143-6.548 13.219.503 26.423 1.333 39.68 1.35 11.4.015 22.833 1.204 34.105 3.53 3.952.816 8.12.493 11.99 2.13 1.355.574 2.575-.177 3.23-1.58 6.577-14.091 17.657-25.163 25.74-38.256 1.61-2.607 1.746-3.735-.804-5.81-9.748-7.936-10.388-15.692-2.58-25.954 1.28-1.683 2.512-3.426 3.97-4.946 6.401-6.672 6.95-12.396 3.701-20.845-4.39-11.417-5.196-15.49 7.357-21.59 9.815-4.77 9.831-3.161 5.101-13.448-3.136-6.82-1.692-12.704.416-18.557 5.698-15.82 11.449-31.675 18.349-46.988 5.919-13.137 11.038-26.628 17.357-39.543 2.701-5.521 7.35-10.085 12.542-14.118 14.958-11.62 31.715-19.784 48.759-27.667 15.035-6.954 30.27-13.6 46.112-18.074 9.047-2.555 14.963-7.414 20.327-14.208 3.27-4.142 6.77-8.102 10.137-12.17.675-.816 2.151-1.385 1.309-2.833-.65-1.115-1.814-1.145-3.028-1.259-7.75-.729-15.4-2.05-22.148-6.206-6.598-4.063-12.62-8.826-16.557-15.753-2.394-4.212-3.318-4.212-6.82-.705-1.836 1.837-3.368 4.009-5.935 5.118-1.391.601-2.392.868-3.544-.252-1.63-1.584.032-2.344.83-3.185 3.09-3.253 8.003-6.024 8.878-9.762.799-3.41-2.751-7.836-4.374-11.818-.175-.43-.28-.888-.498-1.591-2.884 1.235-4.53 4.583-8.098 4.235-1.592-.156-3.263-.264-3.278-2.128-.013-1.51 1.47-1.767 2.912-1.99 6.288-.977 8.449-5.134 6.537-10.916-2.442-7.382-3.585-15.06-4.724-22.783-2.351-15.937 1.229-31.246 5.51-46.059 3.744-12.95 9.183-25.588 17.438-36.83 5.039-6.862 10.066-13.607 15.992-19.72 14.881-15.353 33.492-22.789 54.224-25.631 16.65-2.283 32.094 2.473 47.24 8.654 9.134 3.728 17.371 8.822 24.054 16.154 5.79 6.353 10.513 13.467 14.228 21.225 3.532 7.373 7.91 14.346 10.502 22.163 2.033 6.132 4.17 12.248 3.978 18.847-.135 4.6.673 9.013 1.615 13.535 1.029 4.943 1.106 10.281-.111 15.309-1.81 7.474 1.414 14.744.487 22.127-1.389 11.05-1.017 22.408-5.955 32.838-7.082 14.961-17.515 25.916-34.484 29.063-2.274.422-4.298 1.658-6.47 1.937-3.504.45-5.65 2.06-6.006 5.479-.317 3.044-.348 5.696 3.262 7.8 5.021 2.93 9.567 6.825 13.865 10.796 3.178 2.935 6.759 5.511 8.441 10.047 2.799 7.546 10.892 8.39 16.873 11.675 7.438 4.084 15.717 6.641 23.147 10.74 17.849 9.845 35.604 19.817 51.01 33.539 9.39 8.364 16.732 17.953 22.795 28.863 6.798 12.23 13.214 24.627 19.157 37.288 3.61 7.692 5.292 15.817 6.418 24.148.526 3.89 1.549 7.686.613 11.675-1.184 5.046-4.967 8.335-8.191 11.853-1.873 2.043-2.258 3.649-1.268 5.906 7.023 16.011 15.594 31.117 26.021 45.184 2.954 3.985 2.998 8.974.645 12.988-4.243 7.237-7.722 14.944-12.831 21.67-1.811 2.384-1.252 4.786-.145 7.33 2.59 5.952 5.771 11.512 9.922 16.522 5.55 6.7 4.694 18.325-4.485 22.92-2.752 1.377-5.15 3.75-8.02 4.547-6.178 1.716-7.445 6.463-8.282 11.642-1.431 8.843-11.848 25.748-23.72 26.916-4.744.466-9.47.423-13.966 4.257-3.891 3.319-10.162 3.598-15.857 3.425-9.49-.289-18.999.08-28.493-.133-2.874-.064-5.477 1.014-8.289 1.013-8.184 0-9.797-1.255-10.704-8.803-.41-3.41-.764-6.83-1.003-10.254-.109-1.555-.702-3.087-1.817-3.706-1.588-.883-2.63.792-3.673 1.821-.475.469-.863 1.176-1.43 1.375-7.058 2.476-6.954 8.61-7.003 14.324-.053 6.07.726 12.14.865 18.217.053 2.267 1.599 3.182 2.858 4.347 8.892 8.226 16.494 17.861 21.721 28.422 7.704 15.567 15.229 31.462 18.56 48.855 1.142 5.956 3.48 11.673 4.893 17.59 1.274 5.332 2.41 10.75 2.946 16.195 1.792 18.193 2.779 36.448 2.01 54.725-.487 11.59-1.296 23.17-3.702 34.602-1.008 4.793-.766 9.838-1.262 14.752-1.04 10.323-1.867 20.632-4.449 30.795-2.021 7.955-3.038 16.218-4.302 24.343-2.167 13.927-5.381 27.476-9.168 41.056-5.539 19.863-9.382 40.196-14.087 60.295-2.362 10.09-5.245 20.06-7.521 30.169-4.873 21.635-10.228 43.157-15.185 64.767-2.1 9.157-1.156 18.803-1.393 28.243-.48 19.21 2.677 37.964 5.7 56.832 1.57 9.81 3.096 19.73 3.633 29.76.354 6.606 1.188 13.228.719 19.815-1.047 14.697-2.627 29.316-5.47 43.837-2.529 12.91-4.55 25.918-7.335 38.797-2.985 13.807-7.835 27.01-12.249 40.353-5.835 17.64-12.575 34.995-15.48 53.492-.456 2.896 1.633 2.956 3.046 4.114 3.793 3.11 8.785 3.653 12.77 6.802 4.279 3.383 3.224 6.532 2.169 10.304-3.009 10.756-6.865 21.218-10.656 31.718-2.9 8.031-2.473 16.382-.859 24.825 1.833 9.583 2.754 19.337 4.18 29 1.328 8.997 3.655 17.809 4.485 26.929.267 2.939 1.127 6.387 1.092 9.102-.117 9.157 5.943 13.427 11.926 18.124 4.277 3.357 7.045 7.954 9.217 12.738 1.765 3.889-2.897 10.114-7.333 10.345-28.901 1.504-57.83.971-86.75 1.025-3.809.007-5.863-1.568-5.802-5.992.1-7.247-.248-14.51 3.219-21.156 1.1-2.11.786-4.136.858-6.333-1.758.073-3.033.925-4.094 2.161-7.656 8.924-18.18 12.65-28.966 15.742-7.783 2.231-11.646.441-14.959-6.93-6.453-14.362-10.075-29.372-8.9-45.225 1.186-16.032 4.816-31.645 8.43-47.267 3.642-15.754 7.143-31.536 11.461-47.125.866-3.125-.45-6.201-1.095-9.2-3.52-16.37-4.124-32.727-.674-49.197 1.076-5.135-.067-10.304-1.514-15.178-7.87-26.513-15.644-53.054-21.415-80.112-1.46-6.844-1.595-13.978-2.235-20.988-2.074-22.723-.827-45.502-.887-68.252-.034-12.648 1.16-25.317 1.584-37.958.325-9.675.448-19.401-1.918-29.315-2.532-10.611-5.337-21.544-6.235-32.287-1.159-13.858-5.496-26.541-9.203-39.56-3.075-10.8-4.774-22.02-9.383-32.355-5.751-12.899-7.649-26.903-11.635-40.307-5.378-18.081-9.843-36.504-13.419-55.028-2.448-12.686-6.737-24.977-7.185-38.185-.324-9.545-3.045-18.998-5.621-28.348-1.794-6.511-2.132-13.426-3.093-20.164-1.495-10.49-2.948-20.985-4.456-31.473-.57-3.97-1.243-7.924-1.915-12.172-6.557 3.09-10.442 8.87-15.705 12.98-23.247 18.147-48.485 20.535-75.758 10.983-11.723-4.106-23.674-7.535-34.605-13.61-6.616-3.676-13.205-7.4-20.167-11.169-6.944-2.986-12.415-7.635-18.112-11.858-8.657-6.418-17.46-12.74-25.246-20.2-12.607-12.077-22.739-25.852-26.93-43.594-1.914-8.614-3.818-16.898-4.476-25.355-.95-12.212-1.021-24.416.087-36.676.648-7.16 1.038-14.31 2.105-21.451.647-4.33 3.14-8.375 2.187-13.387-.331-8.809 1.326-16.905 3.593-24.878 2.621-9.22 3.955-18.862 8.868-27.357.91-1.575.511-3.201-.876-4.52-1.195-1.134-2.523-2.191-2.83-4.328z"/><path fill="#A7A7A7" d="M621.12 807.054c3.356.178 6.532 1.072 9.217.288 3.883-1.135 5.956.815 8.206 3.008 11.573 11.278 19.932 24.565 26.563 39.344 9.956 22.19 15.187 45.565 18.985 69.3 3.986 24.913 2.651 50.029 1.373 75.124-1.06 20.804-5.028 41.236-7.738 61.798-2.243 17.02-5.734 33.996-10.152 50.758-4.843 18.377-8.428 37.123-12.752 55.643-5.21 22.314-10.64 44.592-15.885 66.905-3.796 16.15-8.122 32.164-11.975 48.28-1.964 8.215-2.722 17.087-.624 25.755 1.574 6.506 1.036 13.253 1.53 19.869 1.185 15.9 4.463 31.453 6.72 47.168 2.49 17.334 3.748 34.672 1.698 52.117-3.088 26.268-7.386 52.343-14.216 77.908-3.18 11.901-7.385 23.528-11.168 35.266-.979 3.036-3.038 4.19-6.362 4.451-9.636.755-18.914-1.126-28.075-3.478-10.865-2.789-21.54-2.835-32.59-.869-11.019 1.96-22.24 1.07-33.23-1.101-2.322-.459-5.046-1.02-5.972-4.383-5.47-19.878-11.64-39.575-16.653-59.564-7.14-28.475-7.207-57.629-7.242-86.791-.027-22.814 2.356-45.523 2.13-68.33-.161-16.376-3.03-32.365-6.385-48.297-6.314-29.994-15.196-59.264-24.407-88.478-9.297-29.49-17.164-59.405-23.24-89.754-5.903-29.485-9.795-59.3-14.7-88.948-1.846-11.163-2.78-22.473-5.307-33.514-.72-3.144.166-5.272 2.346-7.55 17.985-18.794 33.182-39.626 45.685-62.468 6.285-11.482 12.225-23.086 17.204-35.204.82-1.996-.397-5.176 3.232-6.063 3.759 2.44 4.428 7.19 8.65 9.125-1.547-5.421-4.95-9.953-7.74-15.14-6.56-8.499-11.972-17.46-19.158-25.01-2.926-3.075-3.97-7.25-7.005-10.218-1.8-1.76.421-3.307 1.16-4.808.882-1.794 1.872-3.304 4.52-2.947 7.075.952 14.179 1.765 21.81 1.615 1.908.232 3.365.116 5.127.17 2.392.28 4.473.55 6.952.792 5.432.412 10.44-.649 15.892-.26 1.817.001 3.214-.015 5-.187 1.836-.43 3.297-.374 5.12-.304 6.047.073 11.73.12 17.872.067 2.612-.52 5.054-.221 6.793-2.677 1.145-.35 1.94-.299 3.136.063 2.213 1.311 4.244.974 6.204.979 15.375.033 30.75.01 46.125.055 2.835.008 5.589.512 8.807.854 4.478.322 8.53.396 12.962-.074.641-.183.9-.252 1.557-.285z"/><path fill="#CFBFB7" d="M319.675 758.24c2.38 2.274 5.52 2.843 8.885 3.776.81.397 1.337.496 2.14.624 1.005.177 1.75.282 2.873.387 4.168 1.065 8.027.275 12.22.24 1.41-.242 2.449-.298 3.866-.453.768-.22 1.166-.289 1.86-.403 2.489-.852 4.69-1.602 7.208-2.519 1.06-.401 1.822-.381 2.939-.18 3.358 1.521 6.342 2.944 9.378 4.247 1.893.813 2.545 1.646 1.246 3.704-4.543 7.198-7.135 15.69-14.306 21.133-2.325 1.764-4.165 4.273-4.372 7.05-.434 5.824-3.724 10.073-6.798 14.535-5.812 8.435-8.963 18.009-11.574 27.763-.774 2.89-.885 6.34 2.21 8.032 3.093 1.69 6.551 1.937 9.855-.18 5.834-3.738 9.783-9.24 12.257-15.33 7.937-19.534 21.45-35.689 31.688-53.804 1.103-1.95 2.07-1.496 3.396-.758 20.49 11.403 38.354 26.114 54.046 43.448 8.231 9.093 15.384 19.064 22.418 29.113 1.602 2.288 1.905 4.191.85 6.733-8.832 21.287-19.463 41.611-32.607 60.725-2.949-1.487-3.935.615-5.066 2.155-8.262 11.256-17.621 21.528-27.603 31.273-3.326 3.246-7.313 5.724-10.124 9.56 4.415-3.34 8.727-6.785 12.81-10.57 3.606-3.343 6.28-7.76 11.371-9.673 1.99 1.307.46 2.284-.086 2.938-7.252 8.7-15.188 16.761-23.28 24.67-.897.877-1.474 2.087-2.767-.043-9.518-15.679-25.014-24.238-40.023-33.43-29.62-18.143-61.367-31.948-93.066-45.838-20.302-8.896-40.35-18.432-61.45-25.412-2.042-.676-4.041-1.727-6.133-1.963-5.217-.59-6.336-3.278-6.253-8.317.513-31.355 5.635-62.019 13.363-92.29 2.087-8.177 6.147-15.673 9.831-23.26 1.242-2.558 3.475-2.777 5.806-2.981 10.108-.884 20.18-.913 30.353-.464 12.993.573 25.738 2.49 38.514 4.497 6.337.995 6.28 1.002 3.704 6.74-1.828 4.075-3.334 8.3-5.274 12.318-2.047 4.24-3.336 8.824-7.6 11.926-3.401 2.474-3.695 6.952-4.977 10.884-1.813 5.563-5.373 10.583-8.378 15.724-3.68 6.292-7.445 12.503-8.677 19.869-.922 5.513 4.698 11.886 10.165 11.485 2.239-.164 3.134-1.923 3.987-3.395 8.635-14.9 17.274-29.784 24.617-45.407 5.262-11.196 11.354-22.002 17.319-33.45 1.966 5.724 4.83 10.257 9.116 14.286.315.219.017.438.123.286z"/><path fill="#A7A7A7" d="M593.554 749.778c-1.747 2.227-4.164 1.007-6.264.977-9.557-.138-19.116-.388-28.592-2.002-2.796-.476-3.358-1.764-2.424-3.987 1.488-3.54 1.826-7.322 2.606-11.407.145-1.488.141-2.579.042-3.998.021-6.411-.834-12.214-5.457-17.13-.628-.417-.936-.693-1.24-1.353-.195-.659-.32-1.01-.683-1.516-8.513-8.285-11.533-20.236-7.374-28.444.826-1.63 1.677-3.25 3.596-4.483a29.6 29.6 0 0 0 3.648-2.894c.217-1.01.54-1.602 1.323-2.294 2.203-1.978 1.267-4.302 1.337-6.827-.608-.81-.821-1.334-.654-2.241a174.455 174.455 0 0 1-6.08-30.18c7.79.248 15.576-.187 22.905 3.17 1.145.524 3.276 1.53 3.301-.179.093-6.25 3.739-2.079 5.837-2.23.795-.057 1.729.12 2.408.517 1.375.803 2.27.437 2.709-.92.415-1.285-.686-1.843-1.605-2.08-2.074-.533-4.236-.733-6.303-1.289-8.458-2.274-16.878-4.69-25.348-6.917-2.193-.577-2.608-1.692-1.948-3.615 1.15-3.35 2.997-6.28 5.182-9.05 1.842-2.335 4.267-4.248 5.098-7.475-.329-.498-.43-.688-.367-1.158.626-.751 1.167-1.124 1.977-1.697 8.79-7.49 16.27-15.644 21.62-26.002.752-1.254 1.59-2.007 2.439-3.172.817-1.18 1.654-1.879 2.826-2.65 5.788-5.377 7.133-12.902 10.655-19.25 6.413-11.556 10.946-24.003 16.466-35.986 1.354-2.937 2.978-1.912 4.744-1.087 6.793 3.172 13.56 6.365 21.171 7.135 1.99.201 4.134.942 5.663-.717 1.731-1.878.057-3.758-.677-5.504-5.505-13.087-8.908-26.853-13.095-40.365-2.14-6.902-4.198-13.829-6.316-20.737-.27-.88-1.34-1.748-.269-2.627.87-.715 1.9-.213 2.813.178 6.133 2.628 12.322 5.138 18.38 7.93 12.405 5.718 24.495 12.062 35.942 19.528 9.83 6.412 19.392 13.188 27.718 21.592 2.397 2.418 1.946 3.619-.491 5.331-2.433 1.71-4.64 3.739-7.16 5.919.208 1.225.894 1.144 1.892.944a7.222 7.222 0 0 0 2.272-1.26c10.431-8.355 8.743-5.353 15.469 3.031 5.083 6.337 7.269 13.683 7.037 21.903-.148 5.252.498 10.53.834 15.793.113 1.768.594 3.426 2.244 5.256 1.68-4.113-.068-7.826.436-11.863.065-.89.145-1.319.214-2.079.096-1.07.174-1.813.163-2.924-.125-.808-.169-1.25-.27-2.019-.085-1.168-.12-2.007-.297-3.244.13-.445.403-.492 1.03-.324 6.057 11.62 13.252 22.33 16.673 34.8 2.412 8.793 4.004 17.717 3.922 26.89-.016 1.8-.642 3.04-1.885 4.345-11.143 11.698-23.522 22.035-35.754 32.527-2.156 1.85-4.632 3.523-6.025 5.887-2.554 4.331-6.258 4.376-10.256 3.504-1.832-.4-3.695-.783-5.414-.423-9.445 1.98-14.142-4.742-18.091-10.909-2.812-4.39-1.304-10.354-.364-15.611 2.26-12.638 9.11-23.101 16.095-33.458 1.97-2.921 3.683-5.927 5.024-9.159.372-.897.765-2.003-.492-2.527-.928-.388-1.448.433-1.985 1.078-12.838 15.396-21.25 32.775-23.87 52.805-.937 7.159 1.353 12.741 8.251 16.784-3.519 1.437-6.445 1.69-9.478 1.762-11.472.274-22.614 2.343-33.41 6.305-1.182.435-2.627.763-2.317 2.027 1.058 4.315-1.744 5.916-4.733 7.628-3.077 1.762-2.462 4.827-2.15 7.545.266 2.32 2.066 3.25 4.326 3.217 3.93-.057 4.931 2.575 5.317 5.77 2.634 21.828 6.24 43.527 8.381 65.424.624 6.376 2.36 12.666 2.785 19.1.31 4.71-7.654 9.718-11.964 7.762-10.758-4.881-21.64-9.401-33.257-11.943-2.725-.597-5.276-1.988-8.262-3.1-7.79-3.28-15.13-6.818-24.39-6.491 8.397.373 15.628 1.856 22.24 6.433z"/><path fill="#A7A7A7" d="M483.67 749.199c6.066 1.498 12.143 2.046 18.737 1.75-1.22 2.313-3.105 2.472-4.723 3.088-9.87 3.76-21.11 2.978-30.416 7.592-11.306 5.606-19.827 1.23-28.538-4.6-7.286-4.876-12.339-10.899-14.764-20.148-3.214-12.257-8.952-23.856-13.685-35.706-1.41-3.53-1.862-6.857-.485-10.622 2.68-7.322 4.97-14.788 7.287-22.237.343-1.103.767-1.751 1.806-2.057 6.693-1.971 9.027-7.525 10.338-13.439.93-4.2 2.88-7.596 5.711-11.097 2.633 2.9 3.63 6.613 5.581 9.74 4.2 6.727 10.077 11.929 15.86 17.205.947.863 2.138 2.316 3.322.918 1.141-1.349-.429-2.377-1.409-3.191-8.41-6.992-15.044-15.336-19.886-25.183-1.081-2.2-1.265-3.582.084-5.753 4.889-7.864 9.574-15.86 14.14-23.918 4.276-7.544 7.234-15.607 8.107-24.29.198-1.972.916-2.551 2.737-2.537 11.332.084 22.664.12 33.996.157 1.458.005 2.476.23 2.677 2.081 2.215 20.359 3.256 40.679-.992 60.942-1.001 4.774-3.226 7.796-8.083 9.623-5.796 2.18-10.462 6.337-13.98 11.587-.74 1.104-1.962 2.436-.725 3.499 1.526 1.31 2.242-.486 2.912-1.533 3.586-5.608 8.887-8.859 15.003-10.993 3.974-1.387 6.037-4.225 7.23-8.223 1.731-5.795 2.765-11.652 2.968-17.669.108-3.218.275-4.942 4.804-3.843 5.06 1.228 10.6.4 15.924.635 4.809.212 9.604.766 14.413.936 2.014.071 2.382 1 2.693 2.7 1.725 9.399 4.925 18.46 6.364 27.942.628 4.143.205 7.927-1.973 11.905-.55 2.176-1.694 3.656-2.686 5.13-5.157 7.66-3.434 15.018.763 22.298 1.89 3.28 4.45 6.16 5.968 10.074.331.796.542 1.256.958 1.872.523.39.79.673 1.074 1.289 4.728 10.416 4.906 20.426-.645 30.328-.932 1.663-1.664 2.846-4.086 2.704-14.08-.824-28.019-2.322-41.38-7.194-4.328-1.578-8.615-3.27-13.298-4.917-.688-.024-.986-.06-1.272-.113.05.319.213.568.651.979 4.324 4.748 10.234 5.732 15.947 7.854.77.138 1.124.356 1.589.922.001.705-.152 1.136-.424 1.887-.378.773-.753 1.085-1.618 1.266-8.055-.399-15.756-.503-23.796-1.735-.834.318-1.266.546-2.09.766-.847.056-1.33.026-2.151-.153-1.354-.794-2.451-1.284-3.576-1.53 2.002 1.616 4.759 1.45 7.037 3.012z"/><path fill="#E4B5A4" d="M541.284 288.239c-6.797-6.85-15.724-6.401-23.9-8.18-.956-.208-1.956-.213-3.017-.32.029-.6-.122-1.188.1-1.545 13.763-22.192 32.456-37.725 58.662-42.756 4.191-.804 8.627-.386 12.95-.41.935-.005 2.101.257 2.777.84 21.259 18.37 36.583 40.42 43.269 68.166 1.456 6.045.259 11.424-.762 17.001-5.84 31.894-25.557 54.457-49.828 74.023-8.39 6.763-17.578 10.396-28.43 10.215-5.348-.089-10.098-1.423-14.523-4.26-16.135-10.345-29.842-23.299-41.447-38.526-1.263-1.657-2.055-3.304-1.885-5.477 1.088-13.91 2.138-27.795 5.446-41.448 1.049-4.33 2.092-3.501 5.029-1.915 8.666 4.68 17.915 7.1 27.872 5.607 1.729-.26 3.811-.047 4.431-2.803 1.22-2.276 2.588-4.005 5.121-4.852 1.59.379 1.447 1.86 2.507 2.652.206-8.976-.497-17.593-4.372-26.012z"/><path fill="#CCBBB3" d="M302.645 909.223c25.642 12.222 50.315 25.416 73.256 41.589 6.382 4.5 11.689 10.283 15.97 16.96 1.252 1.954 1.292 2.991-.398 4.552-16.709 15.433-35.585 23.564-58.927 19.303-30.974-5.655-58.397-18.857-83.514-37.433-12.16-8.993-23.85-18.46-34.816-28.95-13.98-13.374-20.73-29.987-24.303-48.368-.694-3.57-.89-7.24-1.628-10.8-.747-3.601-.449-4.777 3.79-3.456 17.107 5.33 33.513 12.384 49.86 19.604 20.143 8.898 40.246 17.887 60.71 26.999z"/><path fill="#A7A7A7" d="M506.049 627.104c-.523-13.08.593-26.042-1.042-38.996-.56-4.433-2.64-5.854-6.543-5.879-11.147-.07-22.294-.2-33.44-.129-2.943.019-4.249-.392-4.475-3.933-.303-4.73-1.633-9.436-2.885-14.054-1.022-3.77-3.597-6.23-7.613-7.001-9.704-1.863-17.793-6.415-24.161-14.117-3.016-3.646-6.94-4.97-11.683-1.959-.762-3.85-.53-7.562-2.298-10.766-1.135-2.056-2.397-4.277-5.12-4.106-2.853.179-4.159 2.172-4.71 4.904-.488 2.423-1.33 4.776-2.044 7.555-2.586 1.599-3.222-.538-3.93-2.055-3.572-7.653-6.583-15.558-8.302-23.814-1.33-6.387-3.158-12.46-6.675-18.391 8.251-8.466 17.086-15.835 27.2-21.645 24.472-14.06 50.51-24.492 77.128-33.597 1.923-.657 3.909-2 6.341-.875-6.006 18.423-9.545 37.273-10.169 56.637-.113 3.49-.187 6.984-.387 10.47-.243 4.24 1.71 4.94 5.22 3.444 3.008-1.282 5.82-3.091 9.248-3.658.285 2.126.547 4.076.999 6.413.238 1.162.527 1.853.917 2.788.008.882.028 1.48.163 2.357.162.72.228 1.156.398 1.91 2.061 15.809 8.294 29.914 14.835 43.804 6.072 12.894 13.017 25.376 19.59 38.034 2.472 4.759 3.9 9.863 5.21 15.03.598 2.363-.154 3.006-2.394 2.67-4.24-.638-8.484-1.281-12.744-1.765-1.452-.165-3.664-1.621-4.234.645-.446 1.776 1.85 1.809 3.199 2.332 3.63 1.409 7.377 1.833 11.24 1.839 1.79.002 3.642.258 5.355.771 2.878.862 2.542 3.755 2.588 5.763.052 2.236-2.37 1.33-3.542 1.13-9.76-1.65-19.584-.4-29.83-.868-.715-.28-.956-.516-1.41-.888zM544.867 806.205c-.887-.227-1.373-.214-2.102-.213-2.163 1.288-4.1.752-6.45-.087-11.474-.74-22.484-1.31-33.61-.198-5.57.558-11.346-1.296-17.149-1.147-5.636.145-11.29-.363-16.935-.59-8.06-.325-9.902-2.182-9.83-9.902.066-7.326.157-14.643.902-21.952.275-2.7 1.318-4.062 3.792-5.126 5.29-2.275 10.926-2.92 16.465-3.984 11.973-2.299 23.526-5.96 34.984-10.057 5.819-2.08 11.91-2.86 18.152-2.224 19.858 2.023 39.772 3.264 59.708 4.208 11.154.528 21.278 5.159 31.672 8.54 9.687 3.152 9.522 3.49 9.045 13.975-.302 6.65-.617 13.313-.53 19.964.056 4.246-1.072 6.625-5.779 6.75-2.123.055-4.684-.13-5.962 2.507.279.419.298.37.288.347-.284.134-.557.292-1.303.415-6.146-2.103-12.013-.917-17.766-.84-13.278.178-26.548-.327-39.824-.135-5.786.083-11.577.166-17.768-.25z"/><path fill="#5D5D5D" d="M405.953 691.732c-4.916 9.989-7.563 20.46-12.17 30.21-5.16 10.918-11.893 20.138-21.911 26.86-10.036 6.735-20.641 11.844-33.19 11.184-8.508-.447-16.425-2.212-21.966-9.493-.6-.787-1.484-1.535-1.678-2.422-1.854-8.493-3.912-16.792-2.039-25.807 2.326-11.191 7.238-20.887 13.728-30.027 4.847-6.828 12.528-10.296 18.597-15.71 10.107-9.017 20.983-17.17 31.48-25.754 3.165-2.59 5.61-3.626 7.998 1.086 1.467 2.895 3.605 5.449 5.07 8.455 3.105 6.37 8.064 8.623 15.19 7.052 2.3-.507 4.229.511 6.342.665 2.361.173 1.399 2.05.949 3.452a1952.017 1952.017 0 0 0-6.4 20.249z"/><path fill="#A6A6A6" d="M397.101 541.573c1.423 6.815-2.065 11.53-5.837 15.89-4.096 4.735-6.38 9.897-6.286 16.214.19 12.83.09 25.664.367 38.49.085 3.92-.967 4.508-4.568 3.275-10.405-3.563-20.752-7.075-28.481-15.547-1.573-1.724-3.2-3.342-4.449-5.35-.785-1.26-1.248-3.27-4.213-2.566 3.66 8.154 9.66 13.7 17.005 17.998 7.045 4.123 14.881 6.335 22.469 9.145 2.73 1.011 4.224 7.374 2.231 11.254-2.052 3.996-4.342 7.798-4.134 12.523.058 1.316-1.115 2.016-2.055 2.662-17.538 12.042-33.742 25.777-49.905 39.546-3.003 2.558-4.784 2.543-7.342-.368-7.548-8.59-7.855-14.562.967-22.953 8.284-7.88 9.822-16.254 5.698-26.536-3.448-8.597-4.29-13.844 9.65-18.201 6.73-2.103 9.012-6.685 5.043-12.918-4.297-6.75-3.234-12.736-.923-19.772 4.94-15.046 10.279-29.95 16.879-44.291 6.72-14.6 12.495-29.643 20.483-43.964 2.67.734 3.221 2.953 3.825 4.977 4.036 13.53 7.96 27.097 13.576 40.492z"/><path fill="#B4A4AC" d="M658.335 764.664c-.09 1.514.175 2.683.077 3.82-.125 1.445 1.734 3.79-.687 4.167-2.62.409-2.183-2.486-2.434-4.061-1.179-7.39-2.196-14.805-3.188-22.223-3.527-26.369-6.542-52.81-10.865-79.067-.452-2.745.332-3.702 2.93-4.518 16.684-5.24 33.802-5.21 50.96-4.296 7.795.415 15.554 1.554 23.323 2.42 1.205.135 3.162-.097 2.887 1.79-.271 1.866-2.12 1.09-3.328.974-9.167-.89-17.423 1.125-24.795 6.924-3.884 3.056-4.667 6.775-3.428 11.072 1.207 4.188 4.875 5.022 8.65 5.49 5.08.628 9.854-1.384 14.82-1.638 2.969-.151 6.496-1.623 8.094 2.548 1.402 3.66.249 12.696-2.088 13.75-2.781 1.256-5.845.332-8.699-.462-5.796-1.611-11.693-2.486-17.697-2.437-8.241.067-12.867 5.497-11.488 13.544.257 1.497.28 2.2-1.151 3.14-3.712 2.442-3.092 6.063-1.523 9.329 3.016 6.273 8.179 9.889 15.072 11.018 5.445.892 10.932.911 16.427 1.048 1.684.042 4.876-1.87 4.877 2.072.001 3.588 1.796 7.969-3.317 9.848-3.358 1.234-6.84 1.244-10.347.75-1.972-.278-3.945-.56-5.926-.753-3.104-.303-6.37-.354-7.299 3.427-.907 3.696-.651 7.352 3.216 9.637 6.072 3.587 12.248 6.748 19.67 5.924 2.145-.238 2.162-.078 2.373 2-3.829 2.051-7.576 2.29-11.307 2.406-3.12.098-6.181.295-9.422 1.843-.635.279-.902.358-1.588.462a57.15 57.15 0 0 0-11.161-.192c-4.53.356-6.733-1.29-6.451-6.295-.83-3.69-1.869-6.964-1.629-10.458-.21 3.427.613 6.684 1.562 10.32.176 2.769.982 5.587-2.636 6.037-3.224.401-4.818-1.294-4.802-4.942-.25-6.578-1.344-12.64-2.134-18.732-.785-6.055-1.792-12.08-2.529-18.144 1.473 11.486 3.2 22.938 4.624 34.83-.221 3.134.183 5.68 1.966 8.076-2.142 1.414-4.076 1.366-6.37.271.382-3.511-1.836-6.363-1.627-9.95-2.72-5.126-1.865-10.476-2.624-15.506-1.804-11.946-3.05-23.976-5.227-35.873-.236-1.292-.097-2.643-.308-3.95 1.88 13.785 3.968 27.54 5.69 41.346.533 4.27 1.008 8.545.857 13.214z"/><path fill="#E2B4A2" d="M527.683 479.269c-.186-2.468 2.768-1.42 2.869-3.466-6.277-1.776-4.392-7.598-5.618-12.374 3.002-4.124 6.353-7.4 10.753-9.934 1.81.208 2.38 1.447 3.23 2.49-.483-1.772-1.206-3.486-.585-5.67 12.319-12.002 24.125-24.077 36.133-35.947 1.273-1.259 2.44-2.78 4.831-2.615-2.64 23.125-10.049 44.316-24.12 62.987-2.062 2.736-3.107 2.101-4.819.105-.685-.799-1.543-2.414-2.704-1.408-1.513 1.311.36 2.338 1.059 3.235 2.945 3.785 4.621 3.713 7.619.067 15.723-19.13 23.245-41.429 25.504-65.774.092-.992.238-1.979.498-3.384 1.947-3.089 3.853-5.655 7.353-6.72.087 21.587 3.804 42.725 5.52 64.023.366 4.55-.27 7.022-5.358 6.188-1.964-.321-4.028 1.782-5.916-.672-.343-5.001 2.32-8.898 3.081-13.252.693-3.961 1.82-7.847 2.036-10.977-1.504 7.333-2.424 15.745-6.727 23.574-1.48 3.54-4.524 2.692-6.975 3.243-1.265.284-3.617-.573-3.382 1.54.21 1.88 2.395 1.068 3.795 1.005.82-.037 1.633-.236 2.83-.441.506.08.629.239 1.043.477.03.582-.231 1.085-.551 2.012-2.235 9.959-7.517 18.093-12.103 26.494-2.93 5.366-6.48 10.457-10.775 14.892-4.163 4.3-6.558 4.109-9.895-.81-6.893-10.157-14.213-20.095-17.477-32.228-.559-2.077-1.422-4.087-1.15-6.66z"/><path fill="#E4B5A4" d="M580.177 478.333c2.218-3.254 11.578-6.163 14.794-4.564 1.596.794.931 2.297 1.185 3.502 3.49 16.56-1.621 31.813-7.137 47.012-2.318 6.387-4.644 12.774-6.795 19.218-1.642 4.918-5.41 7.577-9.926 9.977-1.351.721-2.394 1.428-3.971 1.601-11.51 2.146-22.436.993-33.187-2.62-5.946-2-11.023-4.333-12.51-11.64-1.258-6.177-5.998-10.652-10.71-14.667-2.38-2.027-2.424-3.548-.276-5.628 5.401-5.23 7.022-11.627 6.471-19.063-.49-6.617-.135-13.304.025-19.956.044-1.843-1.025-4.679 1.101-5.32 2.121-.64 4.93-.263 6.753 2.431 3.308 5.681 3.972 11.947 6.706 17.472 3.628 7.332 8.041 14.16 12.797 20.738 2.809 3.885 3.991 7.835 3.84 12.513-.086 2.68-.752 5.565 1.076 8.54 2.037-2.176 1.642-4.07.616-6.088-2.105-4.14-1.205-7.195 2.411-10.44 9.7-8.704 15.78-20.012 21.211-31.666 1.75-3.755 3.369-7.57 5.526-11.352z"/><path fill="#A38C7E" d="M543.687 1750.058c8.474-35.303 8.175-70.77 7.024-106.462 2.75 4.469 5.393 9.006 8.265 13.394 11.95 18.252 28.55 31.99 44.974 45.848 3.655 3.084 5.937 6.205 6.355 11.162.526 6.229 1.982 12.38 3.23 19.692-14.015-8.8-27.67-7.027-40.567-.988-9.876 4.625-19.36 10.424-28.072 17.786-.571.099-.846.04-1.21-.432z"/><path fill="#A6A6A6" d="M772.945 669.494c-3.942 5.923-7.632 11.557-11.594 16.993-2.966 4.068-2.864 8.335-1.47 12.757 1.57 4.988 4.547 9.168 7.78 13.233 9.166 11.532 7.528 18.863-5.618 25.648-1.739.898-3.337 2.196-5.84 2.313-.107-1.613-.15-3.2-.33-4.772-.382-3.34-.775-6.405 4.254-3.643 1.314.721 3.786.923 4.394-.793.762-2.151-1.887-2.365-3.166-3.072-3.96-2.189-9.268-3.214-7.145-10.117 3.833 2.003 7.453 4.18 10.721 6.942 1.043.88 2.299 1.879 3.44.456 1.18-1.475-.23-2.402-1.269-3.202-.922-.71-1.94-1.293-2.912-1.937-5.798-3.842-10.984-7.577-15.154-14.005-4.492-6.924-8.562-11.747-5.547-20.81 2.17-6.524-7.94-17.912-15.742-20.309-.594-.183-1.174-.412-2.776-.98 4.224-1.334 4.995-4.145 5.354-7.25.517-4.466-4.653-3.454-6.341-7.053 6.373-.345 12.066-2.198 17.583-4.674 1.465-.658 3.107-1.114 2.475-2.957-.753-2.194-2.433-.859-3.725-.397-2.49.89-4.89 2.115-7.44 2.741-4.377 1.075-8.913 3.022-12.77-1.538-1.623-1.917-5.043.02-6.79-2.817 9.697-9.497 20.082-18.298 30.365-27.21 1.677-1.453 3.07-1.582 4.067.92 5.007 12.576 12.006 24.135 18.552 35.92a28.56 28.56 0 0 0 4.43 5.954c3.85 3.965 4.277 8.379 2.214 13.66z"/><path fill="#5D5D5D" d="M410.463 653.015c-12.018-1.632-22.53-13.253-21.69-26.092.9-13.736.662-27.625-.493-41.425-.147-1.754-.7-4.211 1.14-5.05 1.978-.902 3.003 1.56 4.333 2.68 6.315 5.315 13.436 9.032 21.26 11.706 11.32 3.87 22.922 6.52 34.614 8.847 4.078.812 2.115 3.113 1.19 4.73-4.371 7.634-8.94 15.154-13.422 22.724-2.03 3.428-4.32 6.74-5.973 10.342-4.09 8.917-10.43 13.47-20.96 11.538zM553.107 1560.737c-.038-6.63.054-12.787-.155-18.934-.107-3.145 1.194-3.877 4.11-3.922 9.221-.144 18.06 2.3 27.053 3.669 6.544.995 13.055 2.944 19.68 2.079 4.171-.545 4.712.292 3.284 3.965-3.725 9.58-6.866 19.359-8.62 29.512-1.265 7.324-2.365 14.68-3.367 22.045-.284 2.09-.738 2.611-3.08 2.43-11.597-.896-22.837-3.39-34.003-6.52-3.17-.888-4.104-2.292-4.139-5.483-.101-9.456.88-18.95-.763-28.84z"/><path fill="#E0B2A1" d="M725.26 701.307c.73-4.355 1.261-8.431.584-12.611-.872-5.386-3.146-7.443-8.683-7.626-4.023-.132-7.952.507-11.856 1.443-6.006 1.439-10.984.377-11.565-2.618-1.113-5.726 3.645-7.532 7.314-9.271 9.942-4.714 20.145-3.988 29.882.64 6.183 2.939 9.914 13.93 7.184 20.314-1.934 4.52-2.331 8.863-.929 13.537 1.523 5.072 1.448 10.168-.379 15.199-.336.926-.79 1.952-.684 2.874.905 7.843-2.544 13.796-7.905 19.033-1.32 1.29-1.918 3-2.105 4.937-1.184 12.279-12.521 19.505-24.081 15.298-2.79-1.016-5.397-2.538-8.074-3.857-1.76-.867-2.256-2.415-1.891-4.19.472-2.297 2.38-1.387 3.662-1.273 4.134.37 8.222 1.209 12.415.908 8.35-.597 11.914-4.593 11.456-12.953-.471-8.597-.47-8.448-8.782-8.398-5.148.03-10.314-.306-15.444-.782-5.43-.504-9.817-2.975-12.54-7.908-2.266-4.108-1.256-6.255 3.377-5.795 7.093.704 14.081 2.454 21.172 3.21 7.414.792 14.92 1.721 22.298-.525 1.325-.403 2.702-1.026 2.383-2.672-.35-1.807-1.954-1.55-3.236-1.259-12.582 2.867-24.778-.166-37.044-2.31-3.453-.604-7.225-.6-6.8-5.717.279-3.355 3.894-5.852 8.6-5.915 7.549-.102 14.755 2.132 22.07 3.478 5.615 1.033 10.523-.415 15.496-2.415 1.434-.576 3.015-1.268 2.135-3.196-.719-1.577-2.251-1.044-3.525-.676-1.436.414-2.844.925-4.505 1.096z"/><path fill="#A6A6A6" d="M631.474 510.619c-9.922-2.643-18.454-7.662-27.612-11.124-3.664-1.386-3.107-4.343-2.993-7.053.64-15.148-1.576-30.107-3.072-45.094-.928-9.293-2.487-18.52-2.99-29.147 11.298 8.155 21.26 15.223 26.287 28.345 8.329 21.738 14.122 44.197 21.26 66.485-3.97 1.005-7.095-1.34-10.88-2.412z"/><path fill="#A38C7E" d="M556.147 1765.976c-3.627-.266-6.788-.407-9.91-.834-1.45-.199-3.708.74-4.084-1.684-.326-2.094-.482-4.28 1.572-5.924 2.463-1.97 4.584-4.415 7.186-6.157 11.415-7.638 22.29-16.332 36.444-18.734 4.685-.795 9.36-1.158 13.788.467 12.785 4.693 23.364 12.474 30.857 23.95 2.695 4.13 1.114 6.959-3.6 7.027-23.932.349-47.807 2.844-72.253 1.889zM496.307 1706.357c-5.325-.183-7.47-2.403-6.5-7.533.741-3.915 1.323-7.885 1.595-11.856.265-3.867 2.287-5.506 6.229-5.906 2.254-1.679 4.608-1.883 6.872-2.34 14.118-2.854 26.897-8.253 36.757-19.247 1.109-1.236 2.34-2.362 4.369-2.942 1.414 19.407 2.243 38.904-.727 58.328-.188 1.234.31 2.715-1.485 3.598-7.578-1.658-14.37-4.695-21.593-6.482-8.35-2.066-16.867-3.245-25.517-5.62z"/><path fill="#895A4E" d="M558.198 220.778c-5.476 3.655-10.97 6.687-15.894 11.117-2.828-.878-4.377 1.029-6.122 2.135-17.57 11.134-30.041 26.91-40.618 44.47-7.032 11.672-13.975 23.41-22.054 34.42-1.484 2.023-3.01 4-4.939 5.587-1.172.964-2.341 2.692-4.432.687-2.707-7.87-1.408-15.558-1.142-23.608-.428-7.19 3.402-12.487 6.501-17.889 17.641-30.743 44.848-49.269 77.83-60.231 2.945-.98 5.982-2.23 9.57-.93 1.23 1.272 1.59 2.501 1.3 4.242z"/><path fill="#FFFFFF" d="M417.435 732.739c1.458 3.259 2.794 6.21 3.55 9.304 2.28 9.323 9.164 14.457 16.659 19.265 4.394 2.819 9.125 4.805 13.873 6.826 2.478 1.055 3.766 2.557 3.546 5.616-.577 8.056.457 16.15-.956 24.236-.732 4.19-3.724 6.672-5.62 9.96-1.002 1.74-1.847.127-2.542-.564-9.714-9.673-21.602-16.744-31.423-26.304-3.402-3.312-10.593-3.1-11.118-8.406-.442-4.463 2.951-9.021 3.81-13.914 1.448-8.255 2.882-16.46 2.895-25.32 2.247-2.235 4.562-2.033 7.326-.7z"/><path fill="#B47872" d="M579.724 411.564c-2.031.807-3.096 2.384-4.373 3.658-9.98 9.953-19.941 19.927-29.918 29.885-1.877 1.874-3.694 3.838-6.614 4.888-2.454-.935-2.864-3.048-3.433-4.878-1.868-6.012-3.756-12.027-5.27-19.22 1.169 9.995 5.379 18.171 6.47 27.4-3.734 3.437-7.326 6.55-11.258 9.692-2.988-8.54-4.787-17.411-5.304-26.24-.822-14.03-.22-28.144-.22-43.992 19.018 17.094 38.755 21.561 60.902 8.936-.314 3.41-.594 6.461-.982 9.871z"/><path fill="#A38C7E" d="M582.172 1679.83c-10.722-9.934-19.546-20.926-26.523-33.382-2.73-4.874-5.014-9.282-4.009-15.731 1.048-6.727 1.518-13.727 1.614-20.434 1.658-.594 2.022.318 2.406.942 11.501 18.716 27.76 33.076 43.708 47.713 1.62 1.487 3.102 2.794 3.438 5.213 1.644 11.864 3.446 23.706 5.167 35.56.089.614-.051 1.263-.126 2.679-9.194-7.213-17.418-14.634-25.675-22.56z"/><path fill="#E0B2A1" d="M389.125 571.901c.227-6.01 3.37-10.068 7.355-13.464 3.25-2.77 12.59-.295 14.087 3.513.202.516.095 1.307-.163 1.823-.713 1.422-1.454 3.01.461 3.767 1.767.699 2.507-1.167 3.41-2.29 3.23-4.018 6.48-8.023 9.63-12.104 1.243-1.608 2.321-3.648 4.614-1.738 2.096 1.746 5.684 2.698 3.901 6.898-1.619 3.814-2.946 7.766-4.157 11.732-.476 1.558-1.763 3.904.729 4.703 2.134.684 2.516-1.692 3.084-3.155 1.262-3.251 2.322-6.58 3.593-9.827.607-1.552.37-4.372 2.459-4.177 2.319.217 4.803 1.486 5.688 4.243.924 2.879 1.263 5.841 1.26 8.855 0 1.664.011 3.328.084 4.99.06 1.39.364 2.866 2.057 2.898 1.803.034 1.92-1.517 1.932-2.874.045-4.79.056-9.582-1.07-14.403 3.22-.08 4.86 1.493 5.63 4.11 3.148 10.707 4.6 21.373.339 32.242-1.09 2.779-2.446 3.713-5.068 3.133-20.6-4.55-41.39-8.631-57.54-23.94-1.402-1.328-2.719-2.413-2.315-4.935z"/><path fill="#5D5D5D" d="M535.253 1589.34c-4.198 3.856-8.89 5.92-13.877 3.622-5.223-2.409-8.177-6.987-8.385-13.046-.428-12.433-2.92-24.58-5.568-36.667-.854-3.898.297-4.55 3.806-4.525 8.142.058 16.215 1.417 24.384 1.023 3.834-.185 7.613-.539 11.354-1.333 1.631-.347 2.91-.487 3.216 1.752 2.538 18.542-3.18 34.589-14.93 49.173z"/><path fill="#A6A6A6" d="M514.191 476.003c.048 8.141.048 15.784.048 23.652-8.868-2.669-17.03-2.18-24.738 2.227-3.102 1.775-3.787.995-3.842-2.435-.253-15.567 2.209-30.729 6.193-45.705.892-3.353 1.603-6.753 2.482-10.108 3.373-12.87 12.67-21.704 21.638-32.279-.633 22.206-1.231 43.178-1.78 64.648z"/><path fill="#A18B7D" d="M507.336 1628.39c-2.847-.648-3.26-1.67-2.72-4.354.953-4.744 3.479-8.893 4.321-13.658 1.298-7.342-1.31-14.117-2.488-21.105-1.663-9.866-2.452-19.772-1.466-29.767.13-1.321.161-2.673 1.812-4.23 1.88 7.825 3.208 15.318 3.235 22.966.023 6.65 4.498 14.773 9.965 17.189 5.535 2.447 12.122.678 17.641-4.707 4.39-4.282 6.714-9.813 9.351-15.178.852-1.733 1.036-3.847 2.76-5.286 1.439 1.975.944 4.175 1.01 6.234.38 11.812-.078 23.582-1.533 35.326-.294 2.372-1.152 4.07-3.054 5.83-6.054 6.696-14.095 8.902-22.254 11.721-5.768 1.607-11.04 1.246-16.58-.98z"/><path fill="#5D5D5D" d="M572.887 556.273c1.4-.856 2.662-1.925 3.758-.59 1.02 1.24-.237 2.56-.839 3.636-5.582 9.985-11.126 19.996-16.932 29.851-4.74 8.045-7.204 17.109-11.713 25.232-.91 1.638-1.062 4.474-3.429 4.328-2.049-.125-2.023-2.77-2.619-4.41-6.058-16.675-10.81-33.666-12.432-51.422-.329-3.594-1.672-6.945-4.236-11.266 14.906 5.94 28.965 9.115 44.134 6.335 1.303-1.23 2.508-1.732 4.308-1.694z"/><path fill="#A38C7E" d="M542.655 1719.813c2.33 2.905 2.062 5.954.282 8.125-10.289 12.553-22.334 22.227-39.656 22.478-2.276.033-4.268-.19-5.16-2.814-3.823-11.255-8.783-22.123-8.564-34.512.085-4.8.83-6.605 6.029-5.244 5.284-1.135 9.958.421 14.587 1.48 10.996 2.515 22.283 4.213 32.482 10.487z"/><path fill="#5D5D5D" d="M718.04 768.329c-.277-2.6.58-4.02 2.305-5.474 5.305-4.475 9.492-9.55 9.752-17.166.096-2.834 2.847-5.148 4.876-7.302 1.528-1.622 3.444-3.466 3.293-5.417-.672-8.653 5.3-16.49 2.886-25.311-.289-1.055-.963-2.976.887-3.327 1.393-.264 2.122 1.318 2.87 2.413 4.143 6.055 4.908 13.184 5.95 20.095 1.363 9.031 1.942 18.243-.919 27.109-2.785 8.632-5.743 17.231-14.644 22.04-4.6 2.486-9.28 2.254-14.075 1.877-1.972-.155-3.38-1.21-3.204-3.601.134-1.823.024-3.664.022-5.936z"/><path fill="#A38C7E" d="M501.367 1661.527c-5.765.387-5.486.459-4.078-5.046 2.053-8.025 3.762-16.143 5.383-24.268.471-2.363 1.333-3.196 3.948-2.53 5.487-.542 10.639 1.263 16.138-.277 7.198-1.021 13.003-4.431 18.895-7.637 1.566-.852 2.861-2.249 5.132-2.529 1.629 6.598 1.948 13.173-2.675 19.345-3.682 5.401-8.805 8.585-13.898 11.7-8.835 5.401-18.176 9.662-28.845 11.242z"/><path fill="#895A4E" d="M467.674 276.267c7.412-17.034 15.157-33.439 28.63-46.248 15.148-14.403 32.32-24.507 54.377-24.778 3.076 2.632 6.579 4.682 5.783 9.56-20.592 4.768-38.513 14.472-55.282 26.555-11.739 8.46-20.781 19.404-28.627 31.432-1.06 1.624-1.653 3.694-4.148 4.438-.543-.205-.704-.402-.733-.959zM536.756 235.764c.288 2.438-1.69 3.338-2.911 4.45-10.259 9.353-14.652 22.482-21.986 33.702-7.816 11.958-14.18 24.856-22.957 36.178-6.208 8.008-12.82 15.711-20.58 22.758-2.246-2.113-2.4-5.022-3.294-8.042-.06-1.954.508-3.287 1.623-4.398 12.247-12.202 19.922-27.567 28.898-42.01 9.868-15.88 20.876-30.666 36.485-41.467 1.395-.965 2.578-2.141 4.722-1.17z"/><path fill="#A18B7D" d="M587.879 1622.158c5.104 2.497 9.868 4.863 14.693 7.098 2.331 1.08 3.425 2.492 2.203 5.048-3.374 7.06-4.949 14.383-2.543 22.747-1.305-.622-1.991-.768-2.422-1.18-16.09-15.424-33.068-30.069-44.078-49.973-.482-.873-1.2-1.708-1.37-2.64-.33-1.81-.345-4.156 1.075-5.08 1.47-.958 2.34 1.307 3.371 2.278 8.776 8.256 18.86 14.761 29.07 21.702z"/><path fill="#A0A0A0" d="M558.13 599.231c-.261-2.326.343-4.301 1.592-6.158 5.652-8.403 11.378-16.764 16.762-25.337 2.07-3.295 3.702-6.993 4.851-10.718 5.002-16.206 12.335-31.559 17.24-47.803 1.585-5.247 8.455-6.097 11.994-1.789 1.115 1.358.245 2.735-.214 4.184-3.675 11.617-9.688 22.183-14.794 33.154-3.358 7.215-6.863 14.362-10.387 21.882.206.72.379 1.144.376 1.962-.739 1.816-2.403 2.57-3.057 4.497-6.206 8.188-12.187 16.106-19.19 23.185-1.408 1.425-2.588 3.048-5.172 2.941z"/><path fill="#CFBFB7" d="M404.548 706.726c2.058 24.655-5.803 46.84-17.528 67.984-2.724 4.912-5.81 9.62-8.599 14.497-1.623 2.837-3.353 3.329-6.251 1.531-5.492-3.405-5.695-3.331-2.413-8.713 11.489-18.834 18.994-39.467 27.506-59.672 2.192-5.204 4.928-10.247 7.285-15.627z"/><path fill="#A38C7E" d="M498.302 1679.466c-4.668 1.137-5.9-.321-4.542-4.57.69-2.154 1.01-4.46 1.227-6.723.315-3.3 1.938-4.988 5.635-5.099 6.825-3.139 13.907-4.462 20.324-7.693 6.857-3.451 13.385-7.328 19.36-12.145 1.515-1.22 2.806-2.96 5.32-2.228-.629 4.643 1.932 9.312-1.402 13.71-3.99 7.722-10.382 12.358-17.41 16.172-8.78 4.765-18.22 7.586-28.512 8.576z"/><path fill="#DADADA" d="M660.89 775.058c2.304.09 4.257.131 6.62.075 7.87-2.019 15.488-1.418 23.477-1.272.414.24.496.283.535.258 6.731-2.568 13.82-2.058 21.146-2.498 4.074 2.715 1.676 6.383 2.002 9.478.25 2.375-2.317 1.96-3.775 2.18-16.799 2.517-33.725 2.695-50.652 2.337-4.271-.09-2.482-4.228-3.31-6.569-1.21-3.426.014-4.827 3.958-3.989z"/><path fill="#A18B7D" d="M576.775 1603.226c11.599 2.441 22.863 3.02 34.153 1.185 3.18-.517 3.518.467 2.679 3.047-1.853 5.69-3.67 11.39-5.505 17.086-.606 1.88-1.22 3.358-3.825 2.224-14.164-6.17-26.741-14.816-38.672-24.492-.21-.17-.223-.583-.485-1.334 3.906.766 7.571 1.485 11.655 2.284z"/><path fill="#CCBBB3" d="M299.769 731.9c2.522-5.049 5.46-9.393 9.048-13.475-2.25 9.121 1.844 18.917-4.79 27.758-4.695 6.255-7.345 14.055-10.83 21.202-2.021 4.145-4.101.115-6.107.032-1.965-.081-2.681-1.318-1.69-3.48 4.831-10.524 9.519-21.114 14.369-32.036z"/><path fill="#542A2C" d="M490.723 368.733c-.019 4.75.736 9.176 1.416 13.589 1.294 8.389 2.922 10.977 10.344 17.335-7.087.858-13.766-2.415-17.626-9.44-4.435-8.07-7.186-16.721-6.953-26.117.043-1.737.44-3.268 1.746-4.891 2.178-.9 3.066.518 3.878 1.646 2.028 2.82 4.776 4.958 7.195 7.878z"/><path fill="#A0A0A0" d="M528.001 578.52c-.109 3.016-.905 3.107-2.104.84-3.1-5.866-6.168-11.749-9.209-17.644-4.422-8.572-7.698-17.613-10.418-26.83-.883-2.992-5.176-5.027-2.641-9.007 9.978 5.774 15.151 14.878 17.823 25.707 2.185 8.856 4.339 17.72 6.55 26.935z"/><path fill="#895A4E" d="M472.559 346.176a2511.751 2511.751 0 0 1 19.562-32.854c2.026-3.348 3.29-7.194 6.958-11.079-2.685 19.787-11.059 36.014-19.934 52.416-5.384-.15-5.45-4.561-6.586-8.483z"/><path fill="#B47872" d="M541.059 288.399c2.941.405 3.311 3.106 3.861 5.395 1.584 6.587 2.381 13.297 2.099 20.09-.057 1.368.668 3.614-1.248 3.778-2.627.226-1.409-2.345-1.824-3.722-.141-.47-.245-.952-.635-1.709-1.001-.783-1.44-1.455-1.381-2.661 3.767-1.265 1.28-2.984.405-4.128-7.56-9.887-17.928-13.01-29.884-12.167-1.3.092-2.598.22-3.899.306-.135.01-.28-.153-.452-.253-.309-1.918.923-3.455 1.364-5.192.788-3.1 2.699-3.623 5.644-2.8a488.085 488.085 0 0 0 20.679 5.279c1.902.442 4.723 2.288 5.27-2.216z"/><path fill="#171617" d="M467.807 277.701c7.379-11.042 14.722-21.718 24.51-30.435 16.795-14.959 36.43-24.844 57.524-32.075 1.675-.574 3.622-.353 5.874-.615 1.67-.877 3.064-.86 4.862-.912 2.701.088 4.947.278 6.674 2.65-.224.663-.584.926-1.108 1.482-2.999 1.205-5.746.823-8.788-.518-8.934-.242-16.441 3.502-24.046 6.78-29.455 12.693-52.452 32.432-66.642 61.635-1.153 2.374-1.848 4.97-2.818 7.839-.463 1.122-.194 2.185-1.473 2.595-2.481-4.748-.09-8.635 2.078-12.852.823-.582 1.058-1.14 1.353-2.03.178-.257.193-.245.184-.25.449-.408.517-.981.817-1.757.164-.231.177-.247.181-.256.306-.305.5-.659.818-1.28z"/><path fill="#211F20" d="M580.165 478.2c-6.326 16.62-13.497 32.863-27.391 44.948-2.77 2.41-2.095 5.389-.846 8.086.441.953 1.537 1.704 1.347 2.948-.338 2.208.113 5.552-2.712 5.708-3.205.177-2.278-3.243-2.107-5.034.817-8.541-1.798-15.632-7.06-22.436-7.47-9.659-12.51-20.697-15.298-33.05.304-.4.585-.413 1.288-.442 3.914 13.736 10.836 25.774 18.84 37.317 4.545 6.555 4.799 6.695 10.28.588 8.336-9.291 13.841-20.288 18.92-31.537a162.245 162.245 0 0 1 3.358-7.038c.495-.216.75-.18 1.381-.057z"/><path fill="#CCBBB3" d="M348.998 838.91c-.845 1.343-1.79 2.506-2.94 3.408-1.74 1.363-3.686 2.412-5.903 1.02-2.518-1.58-1.16-3.674-.719-5.72 2.117-9.804 6.378-18.65 11.722-27.059 1.967-3.094 3.601-4.343 7.253-1.653 5.571 4.104 5.785 3.776 2.579 10.434-3.063 6.36-5.776 12.909-10.796 18.473-1.07-.768-1.127-1.605-1.332-2.408-.403-1.583.515-4.33-2.252-4.1-1.862.155-2.872 2.29-3.002 4.175-.194 2.8 2.157 2.376 4.225 2.727.554.187.764.296 1.165.703z"/><path fill="#211F20" d="M664.62 648.641c-7.582.427-14.51 2.088-21.486 3.47-.976.193-2.359 1.487-2.872-.37-.445-1.612.79-2.365 2.244-2.657 8.911-1.787 17.803-3.476 26.914-4.246 8.798-.743 17.567-.715 26.357-.841 6.329-.092 12.518.995 18.723 2 2.142.347 4.951.532 4.223 3.525-.646 2.65-3.34 1.484-5.135 1.163-15.762-2.82-31.65-3.049-47.583-2.486-.32.011-.633.192-1.384.442z"/><path fill="#171617" d="M537.014 236.004c-6.09 1.075-9.747 5.896-14.04 9.548-12.067 10.264-20.477 23.48-28.619 36.844-8.637 14.176-16.83 28.653-28.469 41.137-1.123 1.868-2.253 3.28-4.52 3.614-.538-.39-.75-.679-1.204-1.09-.25-3.163 2.126-4.38 4.495-5.927 7.625-5.661 11.942-13.61 16.84-21.068 8.742-13.312 16.296-27.387 25.953-40.116 8.543-11.26 19.107-20.221 30.97-27.742 1.029-.653 2.39-2.532 3.498.46.068.345.08.31.1.311a7.442 7.442 0 0 0-.869.88c-.17.183-.163.129-.135.131-.43.42-1.034.482-1.812.854-.224.191-.215.143-.19.146-.534.533-1.082 1.071-1.813 1.835-.194.213-.202.179-.185.183z"/><path fill="#CCBBB3" d="M270.814 788.345c1.342-1.876 1.6-5.585 3.722-4.85 2.825.98 5.543 2.742 8.363 4.07.146.068-.16 1.522-.524 2.183-5.643 10.243-11.363 20.443-16.974 30.704-.808 1.48-1.593 1.787-3.124 1.2-2.76-1.06-4.655-2.885-4.238-5.889.403-2.899 1.488-5.703 2.643-8.65 1.001.488 1.24 1.254 1.423 2.074.27 1.21.015 2.967 1.917 2.912 1.897-.054 2.895-1.503 3.306-3.186.483-1.977-.01-3.387-2.486-2.764-1.106.278-2.043 1.077-3.553 1.081 1.116-5.847 5.192-10.219 7.693-15.79 1.435-.752 1.703.372 2.102 1.182.796 1.62 1.752 2.876 3.75 1.795 1.323-.714 2.586-1.749 2.272-3.41-.366-1.933-2.12-1.638-3.562-1.674-.954-.024-1.967.215-2.73-.988z"/><path fill="#542A2C" d="M624.957 373.715c.018-6.28.013-12.09.046-17.9.017-2.898 5.502-9.155 8.226-9.396 2.327-.206 1.703 1.662 1.646 2.742-.428 8.257-1.119 16.5-3.726 24.41-1.19 3.61-2.743 7.106-4.244 10.604-.639 1.49-1.31 3.14-3.75 3.13.602-4.407 1.198-8.763 1.802-13.59z"/><path fill="#895A4E" d="M524.338 257.009c7.748-15.209 19.576-25.287 37.07-28.057 6.712-1.064 13.262-1.617 19.861.687-22.604 1.566-40.799 12.008-56.93 27.37zM625.34 259.835c.479-1.28-.76-1.95-1.541-2.676-5.479-5.091-11.026-10.088-18.357-12.468-2.637-.857-4.143-3.101-6.357-4.897 14.62-4.287 34.596 12.505 36.886 31.094-4.027-3.686-5.74-8.844-10.63-11.053z"/><path fill="#211F20" d="M724.764 656.725c-18.699-2.65-37.75-3.318-56.845-2.67-10.492.355-20.687 2.45-30.392 6.648-1.32.571-3.12 2.51-4.174.168-.842-1.871 1.482-2.244 2.692-2.879 7.656-4.013 16.136-4.83 24.481-5.948 18.906-2.533 37.708-.842 56.432 2.043 2.587.398 5.06 1.545 7.806 2.638z"/><path fill="#895A4E" d="M567.74 216.766c-2.086-1.234-4.03-1.766-6.475-2.007-1.891-2.538-2.957-5.157-3.406-8.312 11.319 1.333 21.325 6.012 31.099 12.097-.317 3.128-1.173 5.81-4.251 7.391-6-2.658-10.269-7.744-16.967-9.169z"/><path fill="#211F20" d="M421.036 938.996c-6.83 5.214-12.014 12.27-18.992 17.369-1.607 1.174-3.044 2.58-4.641 3.77-.914.68-1.83 2.607-3.138.923-1.02-1.316.286-2.362 1.335-3.279 6.006-5.249 12.02-10.48 17.593-16.213 7.77-7.997 14.705-16.667 21.414-25.545 2.126-2.813 2.241-2.726 4.288-.284.094.311.096.24.132.238-.657.782-1.156 1.695-1.868 2.842-.18.254-.19.16-.145.15-.425.417-.523 1.012-.826 1.84-.159.253-.182.194-.15.196-.238.206-.49.43-.884.87-.16.197-.164.118-.125.114-.642.772-1.153 1.66-1.829 2.81-.165.259-.199.205-.17.22-1.765 1.032-2.358 3.038-3.813 4.752-.171.279-.214.231-.184.241-.93.747-1.35 1.832-1.914 3.22-.054.531-.122.68-.43.789-2.24 1.055-3.557 2.993-5.455 4.79-.228.257-.232.19-.198.187z"/><path fill="#895A4E" d="M606.533 236.954c-3.584-.036-6.726-.036-9.88-.036.98-4.058 8.949-10.608 12.976-10.615.581 0 1.328.332 1.72.764 4.947 5.443 10.084 10.757 13.166 17.714-5.881-2.736-11.242-6.32-17.982-7.827zM490.99 368.511c-5.035-1.12-6.861-6.102-10.705-9.402 3.746-8.578 7.81-17.031 11.876-25.485-.806 11.604-1.475 22.988-1.171 34.887z"/><path fill="#CFBFB7" d="M360.137 806.092c-4.06-3.14-4.454-7.995-1.356-12.388 3.036-4.304 6.082-4.167 13.108.688 1.455 1.006 3.017 1.775 1.27 4.209-7.982 11.11-5.304 11.338-13.022 7.49z"/><path fill="#53434C" d="M528.134 303.771c1.962 4.598-.023 8.102-3.63 9.693-2.967 1.308-7.025 3.173-9.964-.738-2.657-3.537-4.956-7.542-2.423-11.844 2.11-3.585 5.605-5.55 10.137-4.074.915.298 2.02.081 2.772 1.39.144 1.562.34 2.799-.348 4.297-.998 1.345-2.212 1.105-3.31 1.283-1.066.172-1.808.717-1.73 1.93.033.499.256.973.697 1.205 1.133.597 1.807-.163 2.44-.934.308-.376.58-.782 1.163-1.397 1.393-.872 2.555-1.295 4.196-.811z"/><path fill="#542A2C" d="M472.329 345.912c2.621 2.579 2.522 6.836 6.326 8.916-2.825 1.946-3.23 5.275-4.502 8.245-1.188 2.778-3.38 5.126-5.6 8.345-1.932-5.175-3.608-9.444-5.106-13.775-.637-1.842.783-3.105 1.871-4.322a187.033 187.033 0 0 1 7.01-7.41z"/><path fill="#A0A0A0" d="M512.287 510.884c-2.497 3.779-4.847 7.194-7.182 10.62-.48.705-1.093 1.576-1.908 1.207-.59-.267-1.177-1.285-1.186-1.976-.073-5.325-1.287-10.46-2.408-15.613-.135-.622-.606-1.544.135-1.736 3.508-.912 7.033-1.61 10.57.113 3.32 1.618 3.459 4.067 1.98 7.385z"/><path fill="#542A2C" d="M465.003 319.634c-1.586 2.203-3.169 3.971-4.919 6.02-3.003 1.956-2.884.083-3.118-1.957-1.087-9.496 1.8-18.212 5.057-27.26.47-.97.912-1.56 1.558-2.34.804 8.232-.46 16.743 1.422 25.537z"/><path fill="#171617" d="M397.422 541.829c-5.506-8.119-8.178-17.39-10.862-26.628-1.83-6.295-3.183-12.733-6.35-18.954-.02-.86.16-1.413.598-2.12 4.777 3.827 5.942 9.397 7.232 14.85 2.36 9.984 5.517 19.68 9.912 28.962.283.596.472 1.23 1.677 1.151.491 1.574-.877 1.95-2.207 2.739z"/><path fill="#542A2C" d="M615.384 392.007c.231-8.095 1.774-16.078 2.005-24.225.1-3.49 2.678-6.243 5.344-9.46.912 10.407-.289 19.98-2.134 29.507-.51 2.632-2.172 4-5.215 4.178zM609.89 374.192c1.375-1.903 2.563-3.476 5.07-4.792-.157 8.103-.944 15.69-3.063 23.03-.9 3.118-4.446 2.74-8.504 3.96 4.753-7.365 3.403-15.11 6.497-22.198z"/><path fill="#211F20" d="M658.572 765.027c-3.143-20.006-5.857-40.008-8.571-60.01l1.464-.222c4.013 19.597 6.161 39.496 8.445 59.798-.336.435-.623.437-1.338.434z"/><path fill="#CCBBB3" d="M284.23 783.844c-2.02-.848-3.658-1.615-5.35-2.242-3.795-1.407-3.914-4.464-2.563-7.267 1.374-2.853 3.2-6.138 7.575-4.183 1.646.736 3.373 1.29 5.013 2.038.92.42 1.86 1.185 1.102 2.297-2.063 3.028-2.006 7.26-5.777 9.357z"/><path fill="#171617" d="M550.936 711.782c-3.504-4.54-7.49-9.186-9.806-15.025-3.365-8.486.247-15.116 5.136-21.805.687.138 1.09.42 1.68 1.024-.914 2.152-1.983 4.001-3.12 5.807-4.903 7.787.117 14.09 3.103 20.678.948 2.092 2.1 4.09 3.267 6.44.008.992-.093 1.679-.26 2.88z"/><path fill="#211F20" d="M497.95 1679.592c5.757-1.76 11.616-2.957 17.26-4.812 11.256-3.699 20.965-9.83 28.533-19.567.814.211 1.335.58 2.053 1.087-4.263 3.566-7.365 8.389-12.04 11.658-10.554 7.382-22.439 10.985-35.36 12.988-.422-.38-.431-.734-.446-1.354z"/><path fill="#DADADA" d="M541.773 309.025c.585.941.917 1.637 1.26 2.63-1.58 1.475-2.058 3.861-4.663 4.359-3.42-1.082-6.517 1.035-10.006-.116 3.341-4.64 5.553-9.578 2.967-16.272 4.692 2.723 7.611 5.744 10.442 9.4z"/><path fill="#A0A0A0" d="M396.043 652.085c2.278.036 3.998.64 5.357 1.916 2.208 2.072 4.228 4.281 2.835 7.724-.881 2.179-2.302 3.877-4.795 3.356-3.83-.8-6.526-3.268-7.416-7.093-.662-2.848.225-5.28 4.02-5.903z"/><path fill="#211F20" d="M557.57 599.31c7.155-5.298 12.505-11.894 17.736-18.586 1.919-2.456 3.626-5.077 5.72-7.739.92-.448 1.587-.558 2.74-.186-5.242 10.756-13.265 19.357-22.045 27.76-1.13-.765-1.811-.371-2.387.71.063.298.028.317.02.335-.734-.624-2.293-.471-1.784-2.293z"/><path fill="#2C2C2C" d="M545.79 1641.008c-2.161-.542-2.899 1.52-4.06 2.468-11.801 9.625-24.999 16.349-40.344 19.5-.401-.29-.399-.55-.378-1.205 9.212-3.224 18.304-6.316 26.691-11.144 5.634-3.242 10.662-7.308 15.88-11.648.947.498 1.573 1.097 2.212 2.029z"/><path fill="#211F20" d="M542.981 1719.7c-14.868-5.774-30.372-9.375-46.62-11.743-.383-.5-.376-.878-.378-1.541 16.138 1.316 31.823 4.72 46.839 11.87.223.477.207.745.159 1.414z"/><path fill="#542A2C" d="M594.954 396.684c-2.346-9.624 6.527-11.68 10.494-16.96.609 6.456-1.749 12.015-5.148 17.063-.914 1.358-3.379 3.86-5.346-.103zM510.597 401.104c-3.923 2.255-5.17-.537-6.148-3.253-2.65-7.367-3.425-15.107-4.574-23.45 3.063 1.6 4.821 3.22 5.177 6.333.796 6.952 2.465 13.694 5.545 20.37z"/><path fill="#E0B2A1" d="M637.282 330.399c-2.26.832-3.496.65-2.953-2.006 1.321-6.473 2.508-12.973 3.738-19.465.318-1.68.909-3.86 2.623-3.678 2.135.227 1.341 2.661 1.362 4.154.1 7.232-1.884 14.039-4.77 20.995z"/><path fill="#E9E9E9" d="M381.24 746.034c1.395.012 1.982.48 1.569 1.502-.955 2.36-1.921 4.723-3.034 7.011-3.265 6.713-6.56 7.636-12.826 3.344-2.382-1.632.064-2.465 1.092-2.866 5.022-1.962 8.83-5.583 13.199-8.991z"/><path fill="#542A2C" d="M471.252 341.728c-1.62 4.863-5.158 7.633-8.323 10.777-4.232-6.301-3.873-8.658 1.612-12.901 1.697-1.313 3.176-2.907 5.043-4.54 2.144 1.657 2.603 3.832 1.668 6.664zM636.965 346.48c-.124-2.392.355-4.011 2.537-4.958 3.66 11.287.939 21.315-5.004 30.833 1.143-8.457 2.977-16.83 2.467-25.875zM460.838 327.35a47.185 47.185 0 0 1 4.64-3.406c1.053 2.688 2.54 5.264 2.543 8.634-.619 1.173-1.075 2.206-1.866 2.676-2.268 1.346-3.663 4.843-6.774 3.852-1.724-.548-.531-9.795 1.457-11.757z"/><path fill="#895A4E" d="M471.34 341.997c-.69-2.027-1.05-4.154-1.44-6.69 5.098-5.99 10.224-11.57 15.637-17.323.286-.173.716-.083.76.132-4.01 8.592-8.801 16.51-14.958 23.881z"/><path fill="#CCBBB3" d="M422.603 659.406c-1.912 2.61-4.47 3.35-7 4.133-6.17 1.908-6.663 1.43-6.77-4.759-.044-2.563.738-3.064 3.077-2.943 2.975.154 5.976-.068 8.959-.241 1.07-.062 2.366-1.363 3.127-.084.753 1.264-.422 2.48-1.393 3.894z"/><path fill="#895A4E" d="M584.569 213.348c-5.108-2.381-9.9-4.568-14.693-6.756 6.649-.145 12.437 2.962 18.55 4.826 3.013.92 5.339 3.243 8.516 3.97 1.903.435 2.285 2.534 1.584 4.085-.667 1.475-2.42 1.034-3.53.385-3.43-2.003-6.75-4.196-10.427-6.51z"/><path fill="#542A2C" d="M472.613 379.336c-3.29-5.212-3.29-5.212 3.123-13.268-.054 8.269 2.905 15.16 5.607 23.022-4.41-2.686-6.458-6.076-8.73-9.754z"/><path fill="#B47872" d="M628.71 265.76c3.278 3.202 5.162 6.896 7.178 10.882-3.65 2.545-5.627-.883-8.58-2.419-3.695-2.506-4.894-6.396-7.29-9.815-.058-2.537 1.43-2.003 2.56-1.531 1.96.817 3.792 1.93 6.132 2.882z"/><path fill="#E0B2A1" d="M401.983 546.88c1.5-5.505 2.948-10.604 4.606-16.443 3.702 4.075 3.491 8.624 2.548 12.412-.598 2.403-3.58 4.921-7.154 4.03z"/><path fill="#542A2C" d="M508.05 384.563c2.333-.534 5.072.822 5.606 3.184 1.077 4.757 2.965 9.472 1.788 15.744-4.865-5.956-6.316-12.18-7.393-18.928z"/><path fill="#FFF" d="M417.79 732.607c-2.233.378-4.497.382-7.185.38-.424-5.594-.424-11.18-.424-16.768 4.581 4.504 5.014 10.742 7.609 16.388z"/><path fill="#895A4E" d="M628.921 265.65c-3.391 1.714-5.53-1.932-8.825-1.827-3.158-3.822-6.114-7.91-9.18-12.32-.109-.321.04-.794.276-.87 5.586 1.656 8.68 6.455 13.478 9.398.348-.014.33-.03.322-.04.18 2.545 2.713 3.435 3.93 5.659z"/><path fill="#2C2C2C" d="M478.011 849.362c5.24 3.59 6.951 9.803 9.828 15.268.326.618.332 1.758-.654 2.126-1.075.402-2.07-.278-2.665-.982-2.57-3.037-5.033-6.17-6.724-10.209 2.301-2.04-.74-4.038.215-6.203z"/><path fill="#B47872" d="M584.48 226.201c2.26-1.893 2.38-4.952 4.426-7.171 5.139 2.434 5.763 7.636 1.7 11.238-1.052.933-1.845.363-2.548-.27-1.214-1.096-2.306-2.328-3.579-3.797z"/><path fill="#2C2C2C" d="M582.395 470.003c2.684-9.56 5.118-19.274 7.168-29.113.874 9.988-2.074 19.257-5.482 28.8-.581.316-.983.307-1.686.313z"/><path fill="#895A4E" d="M627.071 274.34c3.212-.885 4.945 2.882 8.5 2.653 2.718 4.07 4.104 8.429 3.707 13.567-4.038-5.297-8.075-10.594-12.207-16.22zM611.58 1599.302c-3.365.814-6.638 1.29-9.918 1.712-2.492.321-3.475-.299-3.002-3.257.883-5.53.672-5.634 5.746-2.999 2.475 1.285 5.217 2.143 7.175 4.544zM605.11 226.109c-3.987 1.458-6.831 3.994-9.701 6.695-1.388-6.331 7.196-8.003 5.633-14.178 7.112 3.93 7.739 5.033 4.067 7.483z"/><path fill="#2C2C2C" d="M270.544 788.16c.63.525 1.08.49 1.84.348 2.479-.465 5.735-1.797 6.396 2.038.556 3.226-2.19 5.337-4.901 5.926-3.954.86-3.451-2.84-4.47-5.272-.473-1.26.068-2.124 1.135-3.04z"/><path fill="#895A4E" d="M632.866 291.217c-.57-1.556-1.202-2.719-.321-4.388 3.602 3.067 5.682 6.95 7.796 10.77 1.49 2.695-1.323 2.986-2.598 3.75-2.322 1.392-2.214-.957-2.603-2.172-.801-2.502-1.459-5.05-2.274-7.96z"/><path fill="#CCBBB3" d="M399.815 769.662c-.805 1.666-1.17 3.344-3.279 1.867-1.014-.71-1.91-1.029-1.18-2.59 2.77-5.907 5.413-11.874 8.44-17.713-.027 6.307-2.054 12.161-3.98 18.436z"/><path fill="#2C2C2C" d="M546.886 1618.989c-6.478 5.235-13.777 9.17-22.505 10.955-.739-.347-.883-.745-.626-1.481 7.84-2.513 14.889-5.998 21.862-10.437.562.22.788.524 1.269.963zM594.16 750.004c-8.087-4.513-16.918-4.972-25.297-7.14 9.549-1.552 17.99 1.622 26.283 6.598-.06.353-.323.418-.986.542z"/><path fill="#CCBBB3" d="M392.993 647.326c-.51 2.573-3.33 2.499-4.073 5.45-3.313-5.422-5.401-9.997-2.645-15.436 2.185 3.234 4.357 6.447 6.718 9.986z"/><path fill="#B47872" d="M519.25 470.177c-.33-7.082-.33-14.014-.33-20.945l.885-.127c1.086 5.677 2.172 11.355 3.24 17.453-.468 2.256-1.658 3.33-3.795 3.62z"/><path fill="#DADADA" d="M509.424 297.941c-2.165 4.526-1.873 8.727-.21 13.71-3.097-1.88-7.475-1.867-5.559-6.396 1.238-2.924-.564-8.708 5.769-7.314z"/><path fill="#B47872" d="M557.603 206.008c1.547 2.643 3.605 4.847 3.32 8.29-1.356.355-2.68.349-4.39.253-.215-4.028-4.321-5.402-5.45-8.895 2.055-.144 4.099.054 6.52.352z"/><path fill="#A7A7A7" d="M555.847 629.403c-2.947-.117-5.42-.262-7.896-.341-1.679-.054-2.476-.933-2.237-2.516.22-1.47 1.16-2.542 2.762-2.064 6.081 1.814 12.527 2.362 18.282 5.627-3.48-.236-6.959-.471-10.911-.706z"/><path fill="#B47872" d="M590.115 400.589c-2.412 2.418-4.713 4.43-7.328 6.509-.277-5.187 1.065-9.697 6.844-12.064.998 1.647.452 3.463.484 5.555z"/><path fill="#211F20" d="M713.049 771.397c-6.834 1.171-13.676 1.91-21.003 2.673-1.765-2.728.604-2.045 1.74-2.175 6.114-.7 12.243-1.285 18.8-1.852.44.346.447.634.463 1.354z"/><path fill="#B47872" d="M558.613 224.125c2.709-2.125 5.577-2.445 8.946-2.345 2.136.568 3.885 1.044 3.584 3.667-3.926.716-7.61 1.144-11.717 1.549-1.112-.724-1.23-1.555-.813-2.871z"/><path fill="#B4A4AC" d="M412.247 555.937c.77-2.924-2.345-2.723-3.811-3.676-2.823-1.834-1.498-2.198 1.114-2.467 1.475-.689 2.548-.347 3.925.025.504.156.701.225 1.182.415.644.304.998.495 1.603.844.41.266.564.386.881.746.145.434.128.627-.131.982.728 4.724-1.448 4.343-4.763 3.13z"/><path fill="#211F20" d="M507.85 808.22c-4.89 2.215-10.005 1.173-15.444.76 4.8-1.728 9.966-3.102 15.445-.76z"/><path fill="#542A2C" d="M495.974 370.954c1.296-1.959 1.761-.386 1.779.291.162 6.255 1.42 12.384 1.849 18.636-2.918-5.84-3.928-12.057-3.628-18.927z"/><path fill="#171617" d="M523.553 1628.176c.423.404.437.788.442 1.46-5.42 1.728-10.829 1.554-16.635.15-.398-.484-.393-.813-.378-1.39 5.39.096 10.776 1.18 16.571-.22z"/><path fill="#DADADA" d="M633.984 340.91c-4.82-1.536-2.006-4.093-1.06-6.198.677-1.505 2.162-1.545 3.159-.263 2.162 2.782 1.194 4.89-2.1 6.461z"/><path fill="#895A4E" d="M571.325 225.814c-.38-1.907-1.927-2.485-3.192-3.69 3.834-.92 7.222.228 10.77 3.77-2.856 0-5.005 0-7.578-.08z"/><path fill="#E0B2A1" d="M518.804 470.418c1.287-1.323 2.459-2.254 3.927-3.312.596.804 1.182 1.752 1.127 2.661-.081 1.343 1.759 3.44-.099 3.805-1.712.336-4.92.9-4.955-3.154z"/><path fill="#B4A4AC" d="M411.11 548.309c1.99-3.413 4.326-1.843 6.142-.256 1.023.894 4.417 1.74 1.106 4.253-.555.004-.745.034-1.15-.126-.215-.19-.206-.18-.199-.177-.425-.448-1.022-.51-1.815-.845-.237-.172-.2-.15-.184-.136-1.103-1.032-2.853-1.083-3.9-2.713z"/><path fill="#A0A0A0" d="M411.47 556.009c.385.27.412.318.385.296.55 1.038 2.257 1.562 1.367 3.653-3.429-2.016-6.504-4.58-10.208-6.25 3.072-.964 5.61.354 8.457 2.3z"/><path fill="#B47872" d="M557.016 217.383c2.828-.877 5.512-.257 8.557.705-1.274 2.719-4.504 1.705-7.159 3.018-.717-1.1-1.056-2.232-1.398-3.723z"/><path fill="#895A4E" d="M558.45 223.813c.413.72.487 1.532.556 2.75-3.018 1.458-6.03 2.509-9.043 3.56 2.031-3.19 5.116-4.668 8.488-6.31z"/><path fill="#211F20" d="M483.792 749.148c-3.968-.564-8.265-.673-11.38-5.337 2.89.851 5.013 1.477 7.426 2.267.341 1.37.897 1.688 2.155.853.615-.194 1.033-.128 1.74.076.238.673.186 1.209.06 2.14z"/><path fill="#A18B7D" d="M523.715 303.46c.405-1.648.002-3.088 1.17-4.596 2.478.443 3.044 2.335 3.487 4.737-1.03.637-2.148.906-3.61 1.187-.865-.122-1.149-.457-1.047-1.329z"/><path fill="#211F20" d="M535.935 806.055c1.894-1.194 3.863-.587 6.202-.262 1.741 1.687.592 2.198-.618 2.345-1.595.194-3.223.109-5.18.023-.354-.69-.363-1.257-.404-2.106z"/><path fill="#171617" d="M572.953 556.01c-.936.737-2.13 1.313-3.662 1.888-.644-.742-.95-1.481-1.267-2.524 1.13-.847 2.27-1.39 3.718-1.837.523.836.739 1.574 1.211 2.473z"/><path fill="#542A2C" d="M643.053 338.965c-2.33-2.276-2.865-5.012.017-9.302 0 3.89 0 6.417-.017 9.302z"/><path fill="#B4A4AC" d="M418.652 545.714c-.344-2.921 1.555-1.952 2.568-1.44 1.057.535 2.54 1.578 1.581 3.129-1.068 1.727-1.88.06-2.71-.535-.404-.288-.775-.624-1.439-1.154z"/><path fill="#CFBFB7" d="M421.286 939.372c.21-3.278 2.268-4.89 5.019-5.734-.832 2.783-2.517 4.648-5.019 5.734z"/><path fill="#211F20" d="M507.775 749.094c.486-.518.877-.787 1.62-1.127 1.407.695 2.092 1.743.762 2.615-1.187.778-2.713.658-4.103.135.542-.458 1.084-.916 1.721-1.623z"/><path fill="#171617" d="M345.692 763.038c-3.351 1.414-7.267.793-11.452.288 3.468-.31 7.225-.32 11.452-.288zM553.153 661.952c.562.472.739.99.862 1.785-1.364.232-.445 3.677-2.342 2.027-1.248-1.085-1.163-3.045 1.48-3.812z"/><path fill="#211F20" d="M484.79 807.772c-1.254.313-2.73.358-4.478.237 1.152-1.414 2.69-1.147 4.477-.237zM517.824 807.825c-1.2 1.051-2.702.688-4.533.524.967-2.013 2.64-1.454 4.533-.524zM410.774 548.136c1.67.648 3.103 1.435 4.395 2.561-1.731.636-3.112-.02-4.853-.766-.158-.652.031-1.155.458-1.795z"/><path fill="#171617" d="M552.817 670.79c-.121.904-.455 1.53-1.013 2.308-1.2-.26-1.916-.97-1.53-2.038.415-1.14 1.372-1.122 2.543-.27zM734.973 531.68c-.237.307-.494.274-1.13.147-1.044-1.01-1.656-1.943-1.375-3.467 1.916.162 1.957 1.8 2.505 3.32z"/><path fill="#CFBFB7" d="M429.392 930.075c-.793-2.868 1.814-3.845 3.372-5.342-.17 2.41-1.71 3.816-3.372 5.342z"/><path fill="#2C2C2C" d="M492.953 736.866c-1.717-.036-2.945-1.042-4.12-2.331 1.726-1.27 2.573.558 3.972 1.213.19.475.187.659.148 1.118z"/><path fill="#171617" d="M558.646 729.246c.33.93.42 2.071.356 3.461-1.3-.79-1.161-1.994-.356-3.461z"/><path fill="#211F20" d="M584.645 568.862c.07-.716-.03-.927-.07-1.148-.02-.105.073-.23.315-.536 1.022-.165 1.844-.14 3.078-.068-.108.927-.628 1.808-1.423 2.839-1.019.276-1.608.029-1.9-1.087z"/><path fill="#A7A7A7" d="M568.427 630.641c1.5-1.038 2.96-.51 4.476.6-1.7 1.748-2.914-.001-4.476-.6z"/><path fill="#211F20" d="M510.745 745.99c-.637-.265-.973-.5-1.492-.984.733-1.284 1.623-.544 2.47-.15.444.206 1.514-.137 1.155.842-.108.291-1.193.223-2.133.292z"/><path fill="#CFBFB7" d="M427.309 933.333c-1.915-1.658-.117-2.545 1.305-3.493.998 1.703-.357 2.318-1.305 3.493z"/><path fill="#171617" d="M733.804 540.112c.247.429.269.98.12 1.673-.817-.36-.928-.92-.12-1.673z"/><path fill="#895A4E" d="M537.348 236.043c-.676-1.199.097-1.658 1.341-2.044.56 1.11-.085 1.669-1.34 2.044z"/><path fill="#CFBFB7" d="M433.375 925.002c-1.582-1.65.56-2.01 1.3-3.05.794 1.408-.234 2.133-1.3 3.05z"/><path fill="#171617" d="M733.643 535.205c.382.382.552.925.582 1.644-.854-.18-1.256-.662-.582-1.644z"/><path fill="#211F20" d="M498.47 518.757c-.4-.355-.603-.88-.686-1.593.833.132 1.24.597.687 1.593z"/><path fill="#CFBFB7" d="M437.348 919.033c-.698-1.332.256-2.115 1.366-3.023 1.293 1.59-.47 2.013-1.366 3.023z"/><path fill="#211F20" d="M497.72 514.323c-.42-.41-.732-1.119-.933-2.106.936.187 1.21.898.933 2.106zM705.168 509.463c-.137 1.144-.85 2.297-2.166 1.91-.937-.277-.95-1.2.039-2.241.757-.135 1.155-.02 2.127.33z"/><path fill="#542A2C" d="M467.993 277.094c-.14.845-.322 1.291-.753 1.808-.138-.798-.029-1.666.323-2.764.291.033.34.296.43.956z"/><path fill="#171617" d="M361.83 759.635c-.554.194-1.296.161-2.413.11.4-.892 1.275-.927 2.414-.11z"/><path fill="#895A4E" d="M539.293 234.098c.157-.444.628-.822 1.424-1.155-.154.438-.631.83-1.424 1.155zM567.227 205.584c-.207.01-.316-.022-.426-.055.174.004.349.009.426.055z"/><path fill="#A38C7E" d="M544.36 1750.387c-.138.6-.325 1.428-1.017.964-.21-.14-.053-.826.096-1.484.334-.062.507.099.92.52z"/><path fill="#895A4E" d="M523.973 256.972c-.11.413-.2.843-.292 1.272-.711-.292-.327-.663.138-1.126.212-.1.172-.129.154-.146z"/><path fill="#542A2C" d="M466.678 279.114c.15.467.005 1.04-.418 1.746-.144-.46-.01-1.049.418-1.746zM465.694 281.12c.074.476-.143 1.084-.687 1.798-.087-.485.155-1.076.687-1.799zM633.246 374.98c.17-.12.337-.063.504-.007-.17.061-.338.123-.504.007z"/><path fill="#895A4E" d="M499.72 300.73c-.03.41-.22.628-.41.846.083-.345.167-.69.41-.846z"/><path fill="#CFBFB7" d="M436.359 920.967c-1.481-.701-.402-1.215.307-1.918.27.546.146 1.185-.307 1.918z"/><path fill="#171617" d="M330.768 762.509c-.363.131-.919.06-1.648-.246.37-.142.913-.05 1.648.246zM351.624 762.206c-.195.278-.572.453-1.268.568.149-.264.617-.467 1.268-.568z"/><path fill="#DADADA" d="M510.404 296.489c.045.007-.046-.008 0 0z"/><path fill="#171617" d="M319.785 758.111c-.005-.022-.092.043-.005.053.087.01.01-.03.005-.053z"/><path fill="#895A4E" d="M541.232 232.948c-.089-.23.075-.548.522-.919.099.242-.085.535-.522.919zM625.595 246.507c-.1.077-.127-.217-.127-.217s.226.14.127.217zM609.992 249.713c-.257.16-.476-.02-.695-.2.244-.045.489-.092.695.2zM610.121 249.87c.363.06.67.18 1.143.495.164.193-.14.51-.298.663-.48.025-.718-.194-.943-.74-.07-.236.043-.357.098-.419z"/><path fill="#171617" d="M552.81 715.108c-.24.026-.518-.25-.847-.822.236-.024.521.248.846.822zM552.208 710.888c.249-.037.55.244.924.83-.241.032-.557-.24-.924-.83z"/><path fill="#E0B2A1" d="M724.926 700.956c.014.21.143.613.092.637-.418.199-.555.042-.183-.481.183-.102.123-.14.09-.156z"/><path fill="#895A4E" d="M631.41 285.41c.205-.023.273.084.341.19-.16-.02-.32-.039-.342-.19z"/><path fill="#211F20" d="M725.008 656.994c.127.148.246.303.364.458-.092-.05-.184-.098-.332-.29-.055-.143-.04-.161-.032-.168z"/><path fill="#895A4E" d="M485.951 317.942c.096-.342.32-.553.545-.764.065.273.13.545.02.986-.176.168-.436-.09-.565-.222z"/><path fill="#A7A7A7" d="M505.823 627.308c.305-.16.603.014 1.034.411-.258.124-.65.023-1.034-.411z"/><path fill="#CCBBB3" d="M349.944 837.968c.063.482-.103.773-.511 1.152-.376-.069-.51-.226-.84-.619-.08-.404.04-.572.409-.919.405-.054.559.071.942.386z"/><path fill="#542A2C" d="M615.001 392.001c-.095.029-.191.056-.146.04.143-.043.145-.041.146-.04z"/><path fill="#211F20" d="M579.893 475.482c-.122.05-.274-.065-.673-.325.05-.043.346.059.673.325zM416.756 552.193c.432-.25.626-.298 1.028-.129.027.5-.22.702-.775.863-.323-.15-.406-.34-.253-.734zM499.53 515.55c-.054.032.052-.033 0 0z"/><path fill="#CFBFB7" d="M435.303 922.086c-.198-.497-.086-.978.396-1.27.218.555.066.92-.396 1.27z"/><path fill="#211F20" d="M520.1 1113.95c-23.539 1.97-46.332.123-68.9-4.538l.087-1.832c4.77.374 9.634.271 14.291 1.206 16.954 3.404 34.013 4.016 51.108 2.007 18.711-2.198 36.71-7.277 54.078-14.64 10.99-4.66 20.31-11.992 30.266-18.317 1.655-1.052 3.684-4.014 5.372-1.881 1.55 1.957-1.88 3.12-3.206 4.09-8.543 6.253-14.385 15.2-23.203 21.42-18.426 12.997-38.692 21.933-59.31 30.406-1.48.608-2.825.744-5.095-.602 11.766-5.212 22.99-10.18 34.211-15.155 11.25-4.988 21.328-11.781 30.619-20.01-19.284 8.438-39.382 13.79-60.319 17.846zM520.36 979.61c19.222-3.443 37.93-7.104 56.032-13.322.783-.269 1.59-.528 2.405-.627 1.145-.138 2.697-.328 2.955 1.052.288 1.545-1.349 1.482-2.423 1.842-13.407 4.498-27.28 7.13-40.974 10.508-21.2 5.231-42.73 5.571-64.313 5.92-.333.006-.676.052-.997-.01-1.124-.222-2.982.66-2.813-1.628.144-1.945 1.723-1.746 3.021-1.65 15.636 1.15 31.123-1.206 47.107-2.086z"/><path fill="#2C2C2C" d="M530.443 1453.582c6.818-5.357 14.513-8.57 21.15-13.745 13.942-10.869 22.078-25.94 31.66-40.034 1.683-2.473 3.269-5.012 4.92-7.506.54-.818 1.122-1.987 2.29-1.344 1.484.818.636 1.974 0 2.95-4.531 6.966-9.041 13.945-13.62 20.879-6.977 10.563-14.601 20.432-24.76 28.376-6.498 5.08-14.245 7.93-20.566 13.117-5.055 4.15-11.81 5.036-17.043 8.85-.72.525-1.56.818-2.19-.018-.584-.773-.263-1.677.386-2.229 1.003-.853 2.053-1.81 3.256-2.241 4.988-1.785 9.759-3.975 14.517-7.055z"/><path fill="#211F20" d="M503.782 1150.493c-1.244.173-2.066.307-2.895.38-1.07.096-2.245-.14-2.318-1.304-.072-1.159 1.077-1.449 2.13-1.582 3.785-.479 7.588-.862 11.342-1.523 25.511-4.488 47.777-15.676 67.189-32.71.25-.219.466-.475.702-.71.856-.847 1.951-1.793 3.02-.917 1.33 1.09-.084 2.107-.732 2.898-1.472 1.795-2.81 3.965-4.727 5.09-12.586 7.38-23.841 17.075-38.049 21.66-11.552 3.727-23.107 7.343-35.662 8.718zM532.893 1048.325c-2.97-2.569.377-2.849 1.396-3.57 8.307-5.884 15.99-12.48 23.358-19.492 11.839-11.267 22.558-23.462 31.737-37.006 1.763-2.602 3.858-4.983 5.879-7.4.678-.812 1.72-1.193 2.619-.344.85.803.639 1.71-.055 2.65-17.558 23.779-36.904 45.82-61.18 63.077-1.075.765-2.296 1.326-3.754 2.085z"/><path fill="#2C2C2C" d="M520.294 1472.744c-1.691-.134-3.653.397-3.81-1.215-.179-1.821 1.79-1.431 3.027-1.531 9.879-.8 19.273-4.199 29.07-5.407 5.767-.71 10.85-3.587 16.417-5.001 7.107-1.806 13.343-5.603 18.98-10.311 1.024-.855 2.204-2.083 3.375-.666 1.066 1.289-.585 1.952-1.316 2.722-3.598 3.794-8.253 6.55-12.824 8.25-12.467 4.639-24.973 9.457-38.57 10.262-4.671.277-8.837 3.934-14.349 2.897z"/><path fill="#211F20" d="M564.219 1008.157c-20.346 8.711-40.49 16.744-63.468 18.312 2.278-3.076 4.685-2.745 6.717-3.172 15.943-3.354 31.93-6.452 46.355-14.692 2.826-1.615 6.25-2.198 9.42-3.186.972-.303 2.105-.328 2.568.814.405 1.002-.487 1.415-1.592 1.924z"/><path fill="#0D0B0A" d="M544.227 806.44c15.355-1.96 30.502-.91 45.634-1.055 7.808-.075 15.613-.394 23.42-.54 2.789-.052 5.664-.603 8.276 1.528-4.075 2.659-8.5 1.09-13.167 1.84-21.08-.007-41.707-.107-62.334-.207-.877-.005-1.625-.261-1.829-1.566z"/><path fill="#2C2C2C" d="M537.84 1149.774c7.046-6.265 15.63-9.463 23.018-14.558.82-.566 2.229-1.538 2.998-.028.694 1.361-.734 2.095-1.644 2.682-8.226 5.309-16.489 10.559-24.745 15.82-.863.55-2.125 1.168-2.545-.021-.758-2.148 1.682-2.489 2.919-3.895z"/><path fill="#211F20" d="M608.375 808.477c3.437-3.003 7.917-.625 12.596-1.586.59.035.559.062.553.082-3.97 2.653-8.418 1.575-13.149 1.504z"/><path fill="#171617" d="M595.866 595.88c2.102 15.384 1.2 30.34.482 45.287-.146 3.043.861 5.246 2.806 7.592 3.458 4.17 7.518 7.621 11.937 10.53 5.995 3.948 10.696 9.392 16.53 13.479.82.574 1.756 1.298.815 2.378-.947 1.087-2.242.686-3.208.053-4.542-2.98-9.089-5.963-13.504-9.126-6.523-4.674-11.304-11.167-16.934-16.769-3.018-3.001-1.053-7.564-1.55-11.383-.552-4.241.15-8.633.12-12.957-.073-10.97.073-21.939-2.537-32.744-1.18-4.884-.004-6.1 4.948-6.035 20.632.27 41.262.646 61.893.904 3.084.04 4.272.904 4.224 4.363-.182 13.138.08 26.281.078 39.423 0 1.852.705 4.063-1.46 5.402-1.9-1.056-1.45-2.893-1.491-4.476-.31-11.954-.733-23.909-.732-35.863 0-3.713-1.124-4.588-4.726-5.001-18.104-2.078-36.259-.122-54.362-1.082-4.68-.248-2.974 3.258-3.329 6.026zM682.943 528.82c-1.593 6.854-5.378 12.685-6.856 19.521-3.276 15.15-6.085 30.208-.956 45.5.497 1.48.54 3.399-1.175 3.728-1.664.32-1.526-1.643-1.874-2.88-5.688-20.205-1.77-39.577 4.935-58.743.911-2.606 2.75-4.514 4.489-6.88.562-.277.828-.397 1.437-.246zM701.742 557.98c-.375 3.083-.013 5.81-1.097 8.329-.464 1.077-1.22 2.14-2.609 1.754-1.297-.36-.788-1.581-.882-2.52-.282-2.82 2.462-6.722-.638-8.13-1.908-.867-2.611 3.956-4.851 5.519-1.422.992-2.28 2.782-3.425 4.185-.68.833-1.634 1.388-2.603.759-1.033-.672-.804-1.892-.168-2.65a657.903 657.903 0 0 1 11.378-13.217c1.134-1.282 3.104-1.373 4.133-.537 1.886 1.531.724 3.996.762 6.508zM694.853 511.142c-10.053 5.073-15.873 13.927-22 22.856-1.74-2.991-.23-4.888.888-6.47 4.963-7.023 10.042-14.002 18.21-17.757 1.36-.624 3.158-2.209 2.902 1.371z"/><path fill="#0D0B0A" d="M689.784 520.34a346.554 346.554 0 0 1 10.01-8.756c.614-.517 1.45-.968 2.166-.104.781.945-.096 1.444-.66 1.977-3.252 3.07-6.513 6.132-10.072 9.346-2.004.145-1.851-.972-1.444-2.464zM737.336 561.85c.924 1.721 1.201 3.133-.23 5.26-2.708-4.119-4.426-7.994-3.97-13.908 2.84 3.014 2.457 6.119 4.2 8.647z"/><path fill="#211F20" d="M689.68 520.081c.457.758.596 1.61.99 2.666-.147 1.264-.901 1.936-2.303 2.292-1.049.015-1.75-.129-2.537-.909.508-2.08 2.26-2.774 3.85-4.049z"/><path fill="#0D0B0A" d="M584.437 568.462c.628.34.904.78 1.507 1.429-.196 1.071-.718 1.934-1.485 2.983-.887.153-1.53.121-2.659.042-.065-1.806 1.07-3.105 2.637-4.454zM685.437 523.95c.873.098 1.543.326 2.414.849-.562 1.027-1.326 1.76-2.383 2.628-.498-.201-.703-.536-.882-1.46.233-1.022.44-1.454.85-2.017z"/><path fill="#211F20" d="M684.353 525.583c.363.156.466.517.696 1.428-.365.968-.856 1.387-1.555 1.942-.455.107-.702.076-1.321 0 .393-1.085 1.156-2.125 2.18-3.37z"/><path fill="#0D0B0A" d="M559.677 601.718c-.426-1.49-.265-2.461 1.591-1.285-.335.677-.823 1.056-1.59 1.285zM481.871 746.496c-.238 1.041-.824 1.695-1.707.097.439-.324.914-.297 1.707-.097z"/><path fill="#2C2C2C" d="M487.451 733.245c.289-.034.508.141.484.187-.228.427-.468.405-.484-.187z"/><path fill="#0D0B0A" d="M567.306 309.31c-.264-1.258-.23-2.344-.09-3.83 2.942-6.962 8.388-10.623 14.737-12.946 9.871-3.612 19.774-3.647 29.8 1.073 3.123 1.04 5.934 1.823 8.75 2.607-.788 2.68-2.863.906-3.985 1.914-.073 1.63 2.215 1.176 2.375 2.828-.237.182-.685.735-.895.655-1.895-.716-2.723.208-3.958 1.64-9.86 11.43-22.636 15.75-37.438 14.807-1.517-.097-3.023-.33-3.513-2.573 5.65-1.187 6.177-4.256 3.945-8.885-.676-1.401-.355-3.206.026-5.15.33-.705.583-1.072.904-1.38.48-.463-.007.34.41-.18.086-.108-.008-.025-.656.377-3.729 3.01-5.4 7.789-10.412 9.044z"/><path fill="#B47872" d="M612.056 293.508c-8.413-1.498-16.803-3.134-25.497-1.081-7.812 1.845-13.801 6.195-18.94 12.518-3.066-3.294.169-6.72-.239-10.186-.16-1.365.704-2.85 1.393-4.529 10.728-4.602 21.321-8.415 32.968-9.367 1.311 4.232 4.946 5.957 7.497 8.58 1.116 1.146 2.785 1.763 2.818 4.065z"/><path fill="#0D0B0A" d="M602.454 281.032c-9.33 1.7-17.803 4.858-26.404 7.57-2.016.635-3.947 1.721-6.585 1.396-1.37-5.842 3.43-6.967 7.04-8.318 6.685-2.502 13.73-3.862 20.843-4.713 5.307-.635 10.614-.68 15.917.015 1.422.186 3.601-.047 3.557 1.84-.053 2.246-2.26 1.405-3.56 1.252-3.544-.417-6.957.28-10.808.958z"/><path fill="#542A2C" d="M559.125 376.114c-5.144 1.584-9.899 3.15-15.008 2.596-.955-.103-2.172-.135-2.034-1.52.1-.99 1.116-1.18 1.947-1.158 10.823.28 19.575-5.629 28.973-9.622 1.218-.517 2.833-2.375 3.83-.462.955 1.83-1.352 2.351-2.554 2.953-4.887 2.447-9.845 4.753-15.154 7.213z"/><path fill="#DADADA" d="M577.772 299.749c-.534 5.518.288 10.367 4.616 14.506-3.114 1.56-5.871.144-8.905.71-2.495-1.531-5.498-2.14-6.412-5.493 3.36-.824 3.67-4.55 6.018-6.195 1.59-1.114 2.984-2.508 4.683-3.528z"/><path fill="#2C2C2C" d="M555.393 350.622c.997-.661 1.652-1.166 2.323-1.647 1.227-.88 2.305-3.642 3.76-2.115 1.963 2.062-.89 3.507-2.217 4.586-2.75 2.235-5.816 4.358-9.01.463-.595-.725-1.706-1.42-.823-2.476.813-.972 1.812-.435 2.607.242.882.752 1.66 1.705 3.36.947z"/><path fill="#211F20" d="M665.473 768.239c-2.094-13.683-3.933-27.159-5.771-40.634l2.114-.273c1.73 13.27 3.459 26.54 5.133 40.248-.373.775-.764.909-1.476.659z"/><path fill="#0D0B0A" d="M665.188 768.424c.402-.401.774-.41 1.426-.412 1.078 1.566-.565 4.286 2.268 4.814 4.713.879 3.904-2.157 3.268-5.377.277-.546.563-.67 1.276-.609.411 5.133 2.824 6.443 7.578 5.78 3.45-.48 7.147-1.445 10.506.922-7.625.832-15.141 1.105-23.124 1.435-5.096-.368-2.151-4.157-3.198-6.553z"/><path fill="#211F20" d="M673.904 766.607c-.335.421-.62.424-1.334.423-1.186-4.621-1.943-9.239-2.7-13.856l1.48-.287c2.026 4.135 1.553 8.915 2.554 13.72z"/><path fill="#0D0B0A" d="M536.63 453.933c-2.956-10.3-7.32-19.909-7.838-30.431l1.27-.385c2.651 8.793 5.304 17.586 8.17 26.645.773 2.146 1.379 4.015 1.87 5.913.287 1.116 1.882 2.614.025 3.324-1.68.641-1.827-1.4-2.388-2.472-.379-.724-.62-1.519-1.11-2.594z"/><path fill="#211F20" d="M431.589 584.352c1.595 1.004 3.016 2.537 4.153 2.35 6.21-1.027 11.767 3.048 18.028 2.304-1.722 2.264-4.19 2.588-6.536 1.486-3.008-1.412-6.035-1.748-9.218-1.442-2.492.239-4.788-.462-6.408-2.185-3.046-3.24-6.649-3.437-10.559-2.581-3.856.844-6.81-.25-9.057-3.571-2.593-3.832-6.15-5.913-10.956-5.708-4.451.189-5.251-3.64-7.667-6.509 2.602-.789 2.978.759 3.647 1.703 1.208 1.707 2.516 2.864 4.888 2.778 4.877-.178 8.672 2.156 11.39 6.043 1.972 2.822 4.329 3.743 7.703 3.172 3.576-.605 7.344-1.338 10.592 2.16zM358.06 818.69c-2.015 2.871-4.396 3.27-6.975 1.71-1.508-.912-1.38-2.527-.726-3.955 1.247-2.72 3.32-4.958 6.398-4.29 3.945.855 2.128 3.819 1.302 6.534zM349.45 837.06c-.412.51-.612.692-.926 1.048-2.533 1.615-4.856 2.066-6.272-1.01-.94-2.041 2.124-7.4 4.312-7.644 1.94-.217 3.134 1.046 3.355 2.837.178 1.443-.162 2.95-.47 4.77zM260.993 807.1c.387-.204.845-.375 1.22-.657 1.66-1.248 3.254-3.198 5.555-1.854 1.909 1.114 1.354 3.193.814 4.9-.798 2.522-2.518 4.584-5.245 4.423-4.733-.278-1.499-3.988-2.256-6.467-.03-.434-.055-.364-.088-.345z"/><path fill="#0D0B0A" d="M523.506 303.042c.494.448.63.817.838 1.471-.382 2.675-.876 5.147-4.211 4.36-2.33-.551-2.563-2.554-2.09-4.401.793-3.097 2.935-2.562 5.463-1.43z"/><path fill="#211F20" d="M415.058 551.372c.68-1.35 1.204-.412 1.887.253-.709 1.499-1.213.565-1.887-.253z"/><path fill="#A7A7A7" d="M581.114 1094.423c1.069-.826 1.767-1.875 2.83-1.253.86.502.085 1.264-.294 1.544-.858.634-1.89 2.641-2.536-.29zM585.243 1092.236c.368-.05.65.223.6.314-.292.534-.575.187-.6-.314z"/><path fill="#53434C" d="M597.66 299.892c2.022 4.582.655 10.359-3.045 12.216-3.382 1.697-7.046 1.826-10.17-.967-3.471-3.101-4.46-7.877-2.101-11.713 2.422-3.94 5.935-5.582 10.633-3.331.296 1.678-.442 2.66-1.351 3.933-.698.721-1.247 1.073-1.746 1.487-1.062.884-2.131 2.193-.972 3.266 1.641 1.519 2.446-.416 3.553-1.738 1.748-1.286 3.204-2.424 5.198-3.153z"/><path fill="#DADADA" d="M608.071 295.866c5.816 1.38 6.121 2.251 2.577 6.564-2.304 2.803-5.157 4.886-8.792 6.8.392-5.105 1.747-9.784-2.286-14.037 3.193-.64 5.647-.114 8.501.673z"/><path fill="#A18B7D" d="M597.923 299.629c-1.333 1.223-1.725 3.544-4.318 3.186-1.769.071-2.424-.818-2.758-2.37.639-1.371 1.214-2.396 2.006-3.71 2.2-.006 4.253.16 5.07 2.894z"/><path fill="#DADADA" d="M578.08 300.05c.003-.214-.104-.62-.045-.645.45-.198.579-.034.148.493-.193.1-.134.136-.102.151z"/><path fill="#CCBBB3" d="M344.941 835.754c.26-1.633.587-3.005 1.938-3.425.749-.233 1.065.785.942 1.385-.301 1.484-.576 3.188-2.88 2.04z"/><path fill="#0D0B0A" d="M590.537 300.14c1.07.682 1.765 1.406 2.598 2.402-.23 2.457-.561 4.658-3.585 4.552-1.522-.054-2.498-.62-2.663-2.282-.253-2.524.634-4.183 3.65-4.673z"/></svg>